<?xml version="1.0" encoding="UTF-8"?>
<svg version="1.1" xmlns="http://www.w3.org/2000/svg" width="225" height="225">
<path d="M0 0 C1.6640625 1.52734375 1.6640625 1.52734375 3 3 C3.598125 3.53625 4.19625 4.0725 4.8125 4.625 C9.89598485 10.14421212 13.67537816 15.37138669 14 23 C14.66 23 15.32 23 16 23 C16.08409452 35.26578677 15.99398952 44.10443792 8 54 C7.47212891 55.07507813 7.47212891 55.07507813 6.93359375 56.171875 C5.57068219 58.84067253 3.62624216 59.68687892 1 61 C0.34 61 -0.32 61 -1 61 C-1.495 62.485 -1.495 62.485 -2 64 C-4.97 64.495 -4.97 64.495 -8 65 C-8 65.66 -8 66.32 -8 67 C-22.42800708 67.54603811 -32.76647096 67.39553797 -44.6015625 58.3671875 C-45.06304687 57.91601562 -45.52453125 57.46484375 -46 57 C-46 56.34 -46 55.68 -46 55 C-46.99 54.67 -47.98 54.34 -49 54 C-55.3554607 45.55119765 -57.0499407 35.33141653 -56 25 C-54.21330684 14.71628517 -48.74029041 7.62448231 -41 1 C-37.45222623 -1.20654222 -33.96273683 -2.70542493 -30 -4 C-29.32453125 -4.26425781 -28.6490625 -4.52851562 -27.953125 -4.80078125 C-18.99445501 -7.81785399 -8.04527331 -4.28979469 0 0 Z M-26 -2 C-24.35 -0.02 -22.7 1.96 -21 4 C-17.28139821 2.46126823 -16.64366459 1.52488612 -14 -2 C-17.96 -2 -21.92 -2 -26 -2 Z M-37 3 C-34.62370911 7.14670039 -34.62370911 7.14670039 -31 10 C-27.40292849 10.32011789 -23.79706201 10.32432332 -20.1875 10.375 C-19.18912109 10.41238281 -18.19074219 10.44976562 -17.16210938 10.48828125 C-11.05964831 10.57332083 -11.05964831 10.57332083 -5.80078125 7.6640625 C-3.71999241 5.12169109 -3.71999241 5.12169109 -4 2 C-6.67221575 0.60738122 -6.67221575 0.60738122 -10 0 C-13.51186877 1.85922464 -16.34346976 4.04829974 -19 7 C-19.556875 6.71125 -20.11375 6.4225 -20.6875 6.125 C-23.08494645 4.9586747 -25.51596939 3.9660119 -28 3 C-28 2.34 -28 1.68 -28 1 C-31.91503564 -0.59501452 -33.66483376 0.68391233 -37 3 Z M-42.7265625 6.6796875 C-43.66628906 7.76636719 -43.66628906 7.76636719 -44.625 8.875 C-45.25664063 9.59429687 -45.88828125 10.31359375 -46.5390625 11.0546875 C-48.20017123 12.86106933 -48.20017123 12.86106933 -48 15 C-47.030625 15.556875 -46.06125 16.11375 -45.0625 16.6875 C-43.5465625 17.8321875 -43.5465625 17.8321875 -42 19 C-41.855625 20.0725 -41.71125 21.145 -41.5625 22.25 C-40.84657668 27.02282214 -38.85612722 28.89801485 -35.59375 32.30078125 C-34 34 -34 34 -33 36 C-33.99 36 -34.98 36 -36 36 C-36.495 37.485 -36.495 37.485 -37 39 C-36.236875 39.680625 -35.47375 40.36125 -34.6875 41.0625 C-31.67156669 44.35898525 -30.54120983 46.86306835 -29 51 C-26.36 50.01 -23.72 49.02 -21 48 C-20.58274322 44.62599422 -20.58274322 44.62599422 -21 41 C-23.35589996 39.11948415 -23.35589996 39.11948415 -26 38 C-26.33 37.34 -26.66 36.68 -27 36 C-26.32453125 36.16757813 -25.6490625 36.33515625 -24.953125 36.5078125 C-24.06109375 36.71148437 -23.1690625 36.91515625 -22.25 37.125 C-21.36828125 37.33382812 -20.4865625 37.54265625 -19.578125 37.7578125 C-16.67124507 38.03088304 -15.43338652 37.53508028 -13 36 C-13 36.99 -13 37.98 -13 39 C-14.98 39.66 -16.96 40.32 -19 41 C-19.41746608 43.87364791 -19.41746608 43.87364791 -19 47 C-16.39330648 49.04308411 -14.13660747 49.95446418 -11 51 C-8.83801833 46.66231898 -8.83801833 46.66231898 -8 42 C-7.34 42 -6.68 42 -6 42 C-6 41.34 -6 40.68 -6 40 C-5.01 39.67 -4.02 39.34 -3 39 C-1.77479736 35.99152582 -1.77479736 35.99152582 -1 33 C-2.65 33.66 -4.3 34.32 -6 35 C-5.401875 34.113125 -4.80375 33.22625 -4.1875 32.3125 C-3.465625 31.219375 -2.74375 30.12625 -2 29 C-1.401875 28.113125 -0.80375 27.22625 -0.1875 26.3125 C0.4003125 25.1678125 0.4003125 25.1678125 1 24 C0.505 22.515 0.505 22.515 0 21 C2.61514317 18.87961365 5.19637616 16.86908256 8 15 C7.34 13.35 6.68 11.7 6 10 C5.34 10 4.68 10 4 10 C3.34 8.68 2.68 7.36 2 6 C0.68 6 -0.64 6 -2 6 C-2.721875 6.78375 -3.44375 7.5675 -4.1875 8.375 C-7.49575919 11.46270858 -9.65942503 11.87732383 -14.01171875 12.54296875 C-16.21899162 12.86517233 -16.21899162 12.86517233 -18 15 C-20.125 15.625 -20.125 15.625 -22 16 C-22.33 15.01 -22.66 14.02 -23 13 C-25.66502786 12.15164988 -25.66502786 12.15164988 -28.8125 11.625 C-34.68522187 10.32227285 -34.68522187 10.32227285 -37.625 7.3125 C-38.07875 6.549375 -38.5325 5.78625 -39 5 C-41.16254517 4.76756336 -41.16254517 4.76756336 -42.7265625 6.6796875 Z M-50 18 C-51.485 21.465 -51.485 21.465 -53 25 C-49.22454612 23.90931332 -46.52956528 23.0916909 -44 20 C-46.81509993 17.7226499 -46.81509993 17.7226499 -50 18 Z M8 18 C5.80961577 19.37168238 5.80961577 19.37168238 4 21 C7.68564084 23.45579697 7.68564084 23.45579697 12 24 C11.67 22.35 11.34 20.7 11 19 C10.01 18.67 9.02 18.34 8 18 Z M-48 25.875 C-48.721875 26.22304687 -49.44375 26.57109375 -50.1875 26.9296875 C-52.16401131 27.87571476 -52.16401131 27.87571476 -53 30 C-53.039992 31.99960012 -53.04346799 34.00047242 -53 36 C-49.78440578 36.33988233 -49.78440578 36.33988233 -47.4375 33.625 C-46.633125 32.75875 -45.82875 31.8925 -45 31 C-44.34 30.34 -43.68 29.68 -43 29 C-42.83312552 26.41645782 -42.83312552 26.41645782 -43 24 C-44.82431493 24 -46.38990224 25.08720217 -48 25.875 Z M3 25 C3.27517768 29.67802059 5.33193886 31.74638753 8.52734375 34.86328125 C9.95381356 36.20367636 9.95381356 36.20367636 12 36 C12.85650653 33.19954954 12.85650653 33.19954954 13 30 C10.85835656 26.8303677 9.48621179 26.11220272 5.75 25.25 C4.8425 25.1675 3.935 25.085 3 25 Z M-39 32 C-38.67 33.65 -38.34 35.3 -38 37 C-37.01 36.01 -36.02 35.02 -35 34 C-36.32 33.34 -37.64 32.68 -39 32 Z M-46.5625 35.0625 C-49.45005435 38.54237319 -49.91853494 40.51942165 -50 45 C-49.19420215 47.3715005 -49.19420215 47.3715005 -48 49 C-45.50439964 46.75539393 -44.1294516 44.61479403 -42.75 41.5625 C-42.39421875 40.80066406 -42.0384375 40.03882813 -41.671875 39.25390625 C-40.91661627 36.72027666 -41.12648928 35.45814874 -42 33 C-44.28856683 32.79099686 -44.28856683 32.79099686 -46.5625 35.0625 Z M2 33 C0.95230482 36.27479579 0.86184826 37.67083459 2.21484375 40.89453125 C2.78332031 41.85746094 3.35179687 42.82039063 3.9375 43.8125 C4.50339844 44.78832031 5.06929687 45.76414062 5.65234375 46.76953125 C6.09707031 47.50558594 6.54179687 48.24164063 7 49 C8.58072231 47.74323967 8.58072231 47.74323967 10 46 C10 40.94859099 9.77389793 38.95248976 6.5625 35 C4.27899489 32.79490971 4.27899489 32.79490971 2 33 Z M-40 40 C-42.92099456 45.02045939 -44.93772779 49.02198536 -44 55 C-42.2515605 57.02108177 -42.2515605 57.02108177 -40 58 C-39.34 58 -38.68 58 -38 58 C-37.75121003 55.56305726 -37.52536596 53.12761611 -37.3125 50.6875 C-37.23966797 49.99720703 -37.16683594 49.30691406 -37.09179688 48.59570312 C-36.69877771 44.53545096 -36.69877771 44.53545096 -38.48046875 41.01953125 C-39.23263672 40.51486328 -39.23263672 40.51486328 -40 40 Z M-2 40 C-3.50875941 46.03503763 -2.64186094 51.89738369 -2 58 C-1.34 58 -0.68 58 0 58 C0 57.34 0 56.68 0 56 C1.32 55.34 2.64 54.68 4 54 C4.56561146 48.34388537 2.71391278 44.77357872 0 40 C-0.66 40 -1.32 40 -2 40 Z M-35 48 C-35.99440536 52.97202678 -36.30156698 56.39686605 -34 61 C-30.65856521 63.63797483 -29.3457707 64 -25 64 C-26.43213512 60.06342758 -28.30332154 56.71068644 -30.5625 53.1875 C-31.18253906 52.21167969 -31.80257812 51.23585937 -32.44140625 50.23046875 C-32.95574219 49.49441406 -33.47007813 48.75835937 -34 48 C-34.33 48 -34.66 48 -35 48 Z M-6 48 C-7.59346254 50.26875893 -9.12192922 52.54751768 -10.625 54.875 C-11.058125 55.52597656 -11.49125 56.17695312 -11.9375 56.84765625 C-13.02330864 58.52478106 -14.019105 60.25943313 -15 62 C-14.67 62.66 -14.34 63.32 -14 64 C-8.59212615 62.90213575 -8.59212615 62.90213575 -5 59 C-4.75812349 56.25481679 -4.75812349 56.25481679 -4.875 53.3125 C-4.90207031 51.82169922 -4.90207031 51.82169922 -4.9296875 50.30078125 C-4.95289063 49.54152344 -4.97609375 48.78226563 -5 48 C-5.33 48 -5.66 48 -6 48 Z M-28 52 C-26.5682479 57.01113235 -24.01554307 58.94469549 -20 62 C-18.86800647 61.0919838 -17.74467637 60.17316174 -16.625 59.25 C-15.99851562 58.73953125 -15.37203125 58.2290625 -14.7265625 57.703125 C-12.91687682 55.91800519 -11.99882545 54.32050356 -11 52 C-17.7776789 48.94063105 -21.28465759 48.70337736 -28 52 Z " fill="#AB8F61" transform="translate(135,46)"/>
<path d="M0 0 C10.39269227 9.23249627 17.98964252 18.60240594 19 33 C19.79029653 46.69188743 16.74906337 58.61723478 8.03125 69.4453125 C-0.37519959 78.43046696 -10.91012269 84.73913005 -23.3671875 85.30078125 C-24.86967121 85.32020424 -26.37243299 85.32376603 -27.875 85.3125 C-28.66583984 85.30686035 -29.45667969 85.3012207 -30.27148438 85.29541016 C-42.69368879 85.03767748 -53.08919799 80.13839779 -62.33984375 71.828125 C-72.92370742 60.17342336 -75.83732935 47.43381317 -75.17480469 32.15966797 C-74.38140469 22.35741045 -70.17113622 14.45019651 -64 7 C-63.49984375 6.36449219 -62.9996875 5.72898437 -62.484375 5.07421875 C-47.28848639 -12.23220995 -17.7354653 -13.86540301 0 0 Z M-49 -1 C-47.515 -0.01 -47.515 -0.01 -46 1 C-45.20980469 0.51402344 -44.41960937 0.02804688 -43.60546875 -0.47265625 C-39.02335837 -2.41372359 -35.23476456 -2.49558798 -30.3125 -2.4375 C-28.97674927 -2.42614014 -28.97674927 -2.42614014 -27.61401367 -2.41455078 C-17.35890543 -2.15824323 -10.03156503 0.79791633 -1.77734375 6.828125 C-0.07653025 8.18348624 -0.07653025 8.18348624 2 8 C2.495 8.99 2.495 8.99 3 10 C3.33 9.01 3.66 8.02 4 7 C-6.64364093 -1.77114855 -16.2799998 -6.55100475 -30.34375 -6.26171875 C-36.78531214 -5.62703542 -43.29433607 -4.10972205 -49 -1 Z M-57 4 C-57.95231597 6.12119128 -57.95231597 6.12119128 -58 8 C-57.34 8 -56.68 8 -56 8 C-56 7.34 -56 6.68 -56 6 C-55.21625 5.7525 -54.4325 5.505 -53.625 5.25 C-50.67682892 3.84610901 -50.0975223 2.99324263 -49 0 C-52.38665418 0 -54.39020906 2.0010112 -57 4 Z M-54 9 C-54 9.66 -54 10.32 -54 11 C-54.59683594 11.2475 -55.19367188 11.495 -55.80859375 11.75 C-61.06101235 14.746032 -63.96303147 21.20438512 -65.875 26.75 C-68.56487061 37.15512821 -67.59530708 47.30634927 -63 57 C-57.20291536 66.62676491 -48.94848338 73.18071109 -38.171875 76.33984375 C-26.0640982 78.85981208 -15.05772527 76.50129197 -4.6875 69.875 C3.20005574 63.9276308 8.49823179 55.80884643 10 46 C10.96936441 33.3709566 9.6541048 23.58313563 2.02734375 13.328125 C-3.7689697 6.67185753 -11.18006589 1.397097 -20 0 C-32.59548272 -0.78560782 -44.62314587 -0.63028262 -54 9 Z M-61 8 C-61.33 8.99 -61.66 9.98 -62 11 C-62.66 11 -63.32 11 -64 11 C-64.79275148 12.4160599 -65.58415312 13.83287553 -66.375 15.25 C-66.81585938 16.03890625 -67.25671875 16.8278125 -67.7109375 17.640625 C-68.13632813 18.41921875 -68.56171875 19.1978125 -69 20 C-69.38285156 20.69222656 -69.76570313 21.38445313 -70.16015625 22.09765625 C-71.32915872 24.74558277 -71.06356489 27.13957981 -71 30 C-71.33 30.33 -71.66 30.66 -72 31 C-73.15626752 46.4105819 -70.28423582 58.01163262 -60 70 C-58.04255056 72.05378923 -56.39850094 73.43818544 -54 75 C-52.515 74.505 -52.515 74.505 -51 74 C-51.680625 73.34 -52.36125 72.68 -53.0625 72 C-54.04653128 71.00478655 -55.02509349 70.0041537 -56 69 C-56.5775 68.40703125 -57.155 67.8140625 -57.75 67.203125 C-62.12986807 62.48343958 -64.74093147 58.00000312 -67 52 C-67.48339844 50.98873047 -67.48339844 50.98873047 -67.9765625 49.95703125 C-72.24565474 40.06387402 -68.61939469 28.18430515 -65.15234375 18.4765625 C-63.59366835 15.12673129 -61.8987673 13.25459679 -59 11 C-59.66 10.01 -60.32 9.02 -61 8 Z M4 9 C3.7763932 11.9254644 3.7763932 11.9254644 5 14 C5.66 14 6.32 14 7 14 C7.12375 14.7425 7.2475 15.485 7.375 16.25 C7.95486701 18.80141485 8.73708739 20.7267573 10 23 C10.66 23 11.32 23 12 23 C12.08821107 26.95818926 12.14079412 30.91612062 12.1875 34.875 C12.21263672 35.98359375 12.23777344 37.0921875 12.26367188 38.234375 C12.32649453 45.35427541 11.51242511 51.32474802 9 58 C9.99 58 10.98 58 12 58 C16.5896851 45.48081429 18.0936888 33.62810348 13 21 C10.90648695 16.84205046 8.73385194 12.77469196 6 9 C5.34 9 4.68 9 4 9 Z M7 59 C7.33 59.99 7.66 60.98 8 62 C7.401875 62.226875 6.80375 62.45375 6.1875 62.6875 C3.38816589 64.36710046 2.41899939 66.09105125 1 69 C1 69.99 1 70.98 1 72 C6.73303779 66.8455002 6.73303779 66.8455002 10 60 C9.01 59.67 8.02 59.34 7 59 Z M-2 71 C-2 71.66 -2 72.32 -2 73 C-1.34 72.67 -0.68 72.34 0 72 C-0.66 71.67 -1.32 71.34 -2 71 Z M-4 72 C-4.66 72.66 -5.32 73.32 -6 74 C-5.01 74.33 -4.02 74.66 -3 75 C-3 74.01 -3 73.02 -3 72 C-3.33 72 -3.66 72 -4 72 Z M-50 74 C-50.66 74.66 -51.32 75.32 -52 76 C-40.53647132 82.51506402 -29.40991624 84.60247906 -16.453125 81.36328125 C-12.08864686 79.97924372 -8.03642401 78.17345908 -4 76 C-4 75.67 -4 75.34 -4 75 C-6.31 75.33 -8.62 75.66 -11 76 C-11 76.66 -11 77.32 -11 78 C-23.91378711 79.63244261 -34.65095307 79.48238001 -47 75 C-47.99 74.67 -48.98 74.34 -50 74 Z " fill="#795938" transform="translate(143,39)"/>
<path d="M0 0 C4.29 0 8.58 0 13 0 C15.97 7.59 18.94 15.18 22 23 C26.61523752 11.54453894 26.61523752 11.54453894 31 0 C34.96 0 38.92 0 43 0 C43 0.66 43 1.32 43 2 C41.02 2.99 41.02 2.99 39 4 C38.95875 5.258125 38.9175 6.51625 38.875 7.8125 C38.85179687 8.52019531 38.82859375 9.22789062 38.8046875 9.95703125 C38.86745538 12.31359719 38.86745538 12.31359719 41 15 C40.67873872 17.63434254 40.18644952 19.62710097 39 22 C38.6947378 26.65275976 38.6947378 26.65275976 40 31 C40.99 31.33 41.98 31.66 43 32 C42.67 32.99 42.34 33.98 42 35 C37.38 35 32.76 35 28 35 C28 34.01 28 33.02 28 32 C29.32 31.34 30.64 30.68 32 30 C32.1799928 24.78020872 31.97094808 20.92737019 30 16 C29.34 16 28.68 16 28 16 C27.88398437 16.69609375 27.76796875 17.3921875 27.6484375 18.109375 C26.92786673 21.32155796 25.86418773 24.20084717 24.625 27.25 C24.20476562 28.30703125 23.78453125 29.3640625 23.3515625 30.453125 C22 33 22 33 19 34 C18.57847656 32.92878906 18.15695313 31.85757813 17.72265625 30.75390625 C17.16940681 29.35671698 16.61601398 27.95958449 16.0625 26.5625 C15.78470703 25.85544922 15.50691406 25.14839844 15.22070312 24.41992188 C14.03777966 20.95326119 14.03777966 20.95326119 12 18 C9.36317825 21.95523262 9.48970302 25.40732719 10 30 C12.3549963 32.08216876 12.3549963 32.08216876 15 33 C14.67 33.66 14.34 34.32 14 35 C9.38 35 4.76 35 0 35 C0 34.01 0 33.02 0 32 C1.32 31.67 2.64 31.34 4 31 C4.9883638 27.22624731 5.27861274 25.55722547 3.5 22 C1.6702526 18.34050519 1.94622893 16.89084702 3 13 C3.37125 11.948125 3.7425 10.89625 4.125 9.8125 C5.31180761 6.96246566 5.31180761 6.96246566 4 4 C1.99983534 2.79117904 1.99983534 2.79117904 0 2 C0 1.34 0 0.68 0 0 Z M9 8 C10 11 10 11 10 11 Z M31 10 C30.34 11.65 29.68 13.3 29 15 C29.66 15 30.32 15 31 15 C31.33 13.35 31.66 11.7 32 10 C31.67 10 31.34 10 31 10 Z M10 11 C11 13 11 13 11 13 Z M11 13 C12 15 12 15 12 15 Z " fill="#A98D61" transform="translate(93,130)"/>
<path d="M0 0 C-0.33 0.99 -0.66 1.98 -1 3 C-1.86625 2.7525 -2.7325 2.505 -3.625 2.25 C-8.05274136 1.92201916 -9.5919558 3.27356464 -13 6 C-14.79394446 7.62351109 -14.79394446 7.62351109 -16 9 C-19.11373372 7.50079488 -22.12228205 5.91847864 -25 4 C-25 3.34 -25 2.68 -25 2 C-29.47883696 2.44703986 -29.47883696 2.44703986 -33 5 C-30.10787748 8.7189759 -30.10787748 8.7189759 -25.89990234 10.50634766 C-23.48693453 10.71456302 -21.10927273 10.79529719 -18.6875 10.8125 C-17.85154297 10.83763672 -17.01558594 10.86277344 -16.15429688 10.88867188 C-14.10336591 10.9472699 -12.05163407 10.97656493 -10 11 C-11.14591488 14.43774463 -11.95688598 15.17413159 -15 17 C-16.32 17 -17.64 17 -19 17 C-19.4125 16.525625 -19.825 16.05125 -20.25 15.5625 C-22.66124713 13.40960078 -24.89712205 13.70559434 -28.0078125 13.44921875 C-31.2179513 12.72536392 -32.82958183 10.35128635 -35 8 C-36.32 8 -37.64 8 -39 8 C-40.78994069 9.74074534 -40.78994069 9.74074534 -42.25 12 C-42.77078125 12.7425 -43.2915625 13.485 -43.828125 14.25 C-44.21484375 14.8275 -44.6015625 15.405 -45 16 C-44.38640625 16.29261719 -43.7728125 16.58523437 -43.140625 16.88671875 C-40.49241397 18.26398178 -38.86661874 19.66672658 -37 22 C-37.03609375 22.78375 -37.0721875 23.5675 -37.109375 24.375 C-36.96694768 27.79325568 -35.8532427 28.77355858 -33.5 31.1875 C-30 34.81944444 -30 34.81944444 -30 37 C-30.99 37 -31.98 37 -33 37 C-33.33 39.31 -33.66 41.62 -34 44 C-34.99 43.34 -35.98 42.68 -37 42 C-37.99 44.31 -38.98 46.62 -40 49 C-40.66 48.01 -41.32 47.02 -42 46 C-41.1875 43.125 -41.1875 43.125 -40 40 C-39.63893903 38.33911955 -39.29537827 36.67381019 -39 35 C-41.45224694 35.10613836 -41.45224694 35.10613836 -44 36 C-46.38038888 39.85396294 -46.17371424 43.5702869 -46 48 C-45.01 48.33 -44.02 48.66 -43 49 C-43 49.99 -43 50.98 -43 52 C-43.66 52 -44.32 52 -45 52 C-43.02 54.64 -41.04 57.28 -39 60 C-40.32 59.34 -41.64 58.68 -43 58 C-43 57.34 -43 56.68 -43 56 C-43.99 55.67 -44.98 55.34 -46 55 C-52.3554607 46.55119765 -54.0499407 36.33141653 -53 26 C-51.21330684 15.71628517 -45.74029041 8.62448231 -38 2 C-34.45222623 -0.20654222 -30.96273683 -1.70542493 -27 -3 C-26.32453125 -3.26425781 -25.6490625 -3.52851562 -24.953125 -3.80078125 C-16.72335774 -6.57237642 -7.49716705 -3.74858352 0 0 Z M-23 -1 C-21.35 0.98 -19.7 2.96 -18 5 C-14.28139821 3.46126823 -13.64366459 2.52488612 -11 -1 C-14.96 -1 -18.92 -1 -23 -1 Z M-47 19 C-48.485 22.465 -48.485 22.465 -50 26 C-46.22454612 24.90931332 -43.52956528 24.0916909 -41 21 C-43.81509993 18.7226499 -43.81509993 18.7226499 -47 19 Z M-45 26.875 C-45.721875 27.22304687 -46.44375 27.57109375 -47.1875 27.9296875 C-49.16401131 28.87571476 -49.16401131 28.87571476 -50 31 C-50.039992 32.99960012 -50.04346799 35.00047242 -50 37 C-46.78440578 37.33988233 -46.78440578 37.33988233 -44.4375 34.625 C-43.633125 33.75875 -42.82875 32.8925 -42 32 C-41.34 31.34 -40.68 30.68 -40 30 C-39.83312552 27.41645782 -39.83312552 27.41645782 -40 25 C-41.82431493 25 -43.38990224 26.08720217 -45 26.875 Z M-36 33 C-35.67 34.65 -35.34 36.3 -35 38 C-34.01 37.01 -33.02 36.02 -32 35 C-33.32 34.34 -34.64 33.68 -36 33 Z " fill="#A28257" transform="translate(132,45)"/>
<path d="M0 0 C3.00056084 -0.08166849 5.9988539 -0.14081551 9 -0.1875 C9.83917969 -0.21263672 10.67835937 -0.23777344 11.54296875 -0.26367188 C17.65243127 -0.33471214 23.79948459 0.09657885 28.56225586 4.41723633 C33.16481495 9.71430549 33.34632583 14.30729832 33.28125 21.05078125 C32.79780186 26.12027218 30.39086784 28.61694602 26.9140625 32.07421875 C23.00923403 34.65475553 19.65313264 34.92651211 15.0625 35.3125 C13.88397461 35.44108398 13.88397461 35.44108398 12.68164062 35.57226562 C8.2512059 36.00604041 4.38832978 35.97909765 0 35 C0 34.01 0 33.02 0 32 C1.32 32 2.64 32 4 32 C3.85786703 30.10388566 3.71113093 28.20811606 3.5625 26.3125 C3.44068359 24.72888672 3.44068359 24.72888672 3.31640625 23.11328125 C3.06227134 20.0400235 3.06227134 20.0400235 2.40234375 17.23046875 C2 15 2 15 3 13 C3.22622081 11.29636178 3.40888473 9.58671299 3.5625 7.875 C3.68818359 6.50988281 3.68818359 6.50988281 3.81640625 5.1171875 C3.87699219 4.41851562 3.93757813 3.71984375 4 3 C2.68 3 1.36 3 0 3 C0 2.01 0 1.02 0 0 Z M11 3 C10.97294271 4.77074917 10.95357805 6.54161711 10.9375 8.3125 C10.92589844 9.29863281 10.91429688 10.28476563 10.90234375 11.30078125 C10.87670138 14.09963849 10.87670138 14.09963849 12 17 C11.649375 17.86625 11.29875 18.7325 10.9375 19.625 C9.67160332 24.18222805 10.71188525 27.54114124 12 32 C16.95213111 32.29130183 20.15734332 32.30895436 24 29 C27.67882992 23.11387212 27.48105254 17.6899244 26 11 C24.23528248 7.40753934 23.07262645 5.62099426 19.625 3.625 C16.66845581 2.92106091 14.02878759 2.85912616 11 3 Z " fill="#BD9E71" transform="translate(58,130)"/>
<path d="M0 0 C-1 3 -1 3 -3 4 C-2.67 5.65 -2.34 7.3 -2 9 C-1.34 9 -0.68 9 0 9 C0 8.34 0 7.68 0 7 C0.66 7 1.32 7 2 7 C2.99 8.485 2.99 8.485 4 10 C4.99 10 5.98 10 7 10 C7.66 8.02 8.32 6.04 9 4 C7.68 3.34 6.36 2.68 5 2 C5 1.34 5 0.68 5 0 C9.29 0 13.58 0 18 0 C16 4 16 4 13.75 6 C8.52581041 11.05264904 4.71649846 18.80241 4.3125 26.0625 C4.57903638 30.10816756 4.57903638 30.10816756 7.5 32.0625 C8.325 32.371875 9.15 32.68125 10 33 C9.67 33.66 9.34 34.32 9 35 C3.72 35 -1.56 35 -7 35 C-7 34.01 -7 33.02 -7 32 C-5.02 31.505 -5.02 31.505 -3 31 C-2.44348267 23.59522779 -3.48418831 18.51210482 -7 12 C-7.32355469 11.33613281 -7.64710938 10.67226562 -7.98046875 9.98828125 C-10.05167744 5.95576473 -12.03206438 4.09418824 -16 2 C-16 1.34 -16 0.68 -16 0 C-10.39436958 -0.82622671 -5.57710648 -1.06795656 0 0 Z M4 11 C4.33 11.66 4.66 12.32 5 13 C5.33 12.34 5.66 11.68 6 11 C5.34 11 4.68 11 4 11 Z " fill="#745321" transform="translate(153,130)"/>
<path d="M0 0 C4.5398773 -0.36809816 4.5398773 -0.36809816 6.5625 1.25 C7.036875 1.8275 7.51125 2.405 8 3 C8.598125 3.53625 9.19625 4.0725 9.8125 4.625 C14.89598485 10.14421212 18.67537816 15.37138669 19 23 C19.66 23 20.32 23 21 23 C21.15302479 45.31975883 21.15302479 45.31975883 13 54 C12.01 54.495 12.01 54.495 11 55 C11 52.69 11 50.38 11 48 C11.66 48 12.32 48 13 48 C14.08269462 43.01192929 14.08269462 43.01192929 12.8125 38.1875 C10.95510022 35.94581062 9.62594604 35.13790995 7 34 C6.67 33.34 6.34 32.68 6 32 C6.66 31.67 7.32 31.34 8 31 C7.67 30.34 7.34 29.68 7 29 C6.77377919 27.29636178 6.59111527 25.58671299 6.4375 23.875 C6.35371094 22.96492188 6.26992187 22.05484375 6.18359375 21.1171875 C6.12300781 20.41851562 6.06242188 19.71984375 6 19 C7.98 17.68 9.96 16.36 12 15 C11.52797514 10.75177626 9.03344482 8.80010291 6 6 C3.47562314 7.0818758 2.0225394 7.97435171 0.1875 10.0625 C-2.73679717 12.65259178 -5.17982042 12.70614003 -9 13 C-8.67 12.01 -8.34 11.02 -8 10 C-7.05125 9.9175 -6.1025 9.835 -5.125 9.75 C-1.92113898 9.35242912 -1.92113898 9.35242912 -0.6875 7.0625 C-0.460625 6.381875 -0.23375 5.70125 0 5 C0.33 4.34 0.66 3.68 1 3 C0.67 2.01 0.34 1.02 0 0 Z M13 18 C10.80961577 19.37168238 10.80961577 19.37168238 9 21 C12.68564084 23.45579697 12.68564084 23.45579697 17 24 C16.67 22.35 16.34 20.7 16 19 C15.01 18.67 14.02 18.34 13 18 Z M8 25 C8.27517768 29.67802059 10.33193886 31.74638753 13.52734375 34.86328125 C14.95381356 36.20367636 14.95381356 36.20367636 17 36 C17.85650653 33.19954954 17.85650653 33.19954954 18 30 C15.85835656 26.8303677 14.48621179 26.11220272 10.75 25.25 C9.8425 25.1675 8.935 25.085 8 25 Z " fill="#8E734A" transform="translate(130,46)"/>
<path d="M0 0 C-0.33 0.99 -0.66 1.98 -1 3 C-1.86625 2.7525 -2.7325 2.505 -3.625 2.25 C-8.05274136 1.92201916 -9.5919558 3.27356464 -13 6 C-14.79394446 7.62351109 -14.79394446 7.62351109 -16 9 C-19.11373372 7.50079488 -22.12228205 5.91847864 -25 4 C-25 3.34 -25 2.68 -25 2 C-29.47883696 2.44703986 -29.47883696 2.44703986 -33 5 C-30.10787748 8.7189759 -30.10787748 8.7189759 -25.89990234 10.50634766 C-23.48693453 10.71456302 -21.10927273 10.79529719 -18.6875 10.8125 C-17.85154297 10.83763672 -17.01558594 10.86277344 -16.15429688 10.88867188 C-14.10336591 10.9472699 -12.05163407 10.97656493 -10 11 C-11.14591488 14.43774463 -11.95688598 15.17413159 -15 17 C-16.32 17 -17.64 17 -19 17 C-19.4125 16.525625 -19.825 16.05125 -20.25 15.5625 C-22.66124713 13.40960078 -24.89712205 13.70559434 -28.0078125 13.44921875 C-31.2179513 12.72536392 -32.82958183 10.35128635 -35 8 C-36.32 8 -37.64 8 -39 8 C-40.78994069 9.74074534 -40.78994069 9.74074534 -42.25 12 C-43.03117187 13.11375 -43.03117187 13.11375 -43.828125 14.25 C-44.21484375 14.8275 -44.6015625 15.405 -45 16 C-45.66 14.68 -46.32 13.36 -47 12 C-45.89718873 10.72799029 -44.79269231 9.45744147 -43.6875 8.1875 C-43.07261719 7.47980469 -42.45773438 6.77210937 -41.82421875 6.04296875 C-41.22222656 5.36878906 -40.62023437 4.69460937 -40 4 C-39.525625 3.46117187 -39.05125 2.92234375 -38.5625 2.3671875 C-35.32021655 -0.46981052 -31.00628146 -1.5764787 -27 -3 C-26.33613281 -3.25394531 -25.67226562 -3.50789063 -24.98828125 -3.76953125 C-16.66228741 -6.47504288 -7.58732633 -3.79366317 0 0 Z M-23 -1 C-21.35 0.98 -19.7 2.96 -18 5 C-14.28139821 3.46126823 -13.64366459 2.52488612 -11 -1 C-14.96 -1 -18.92 -1 -23 -1 Z " fill="#8B6D3F" transform="translate(132,45)"/>
<path d="M0 0 C5.28 0 10.56 0 16 0 C16.33 1.98 16.66 3.96 17 6 C17.33 6.33 17.66 6.66 18 7 C18.99 4.69 19.98 2.38 21 0 C21.66 0 22.32 0 23 0 C23.66 2.64 24.32 5.28 25 8 C25.66 8 26.32 8 27 8 C27 5.36 27 2.72 27 0 C32.28 0 37.56 0 43 0 C42.34 0.99 41.68 1.98 41 3 C39.68 2.67 38.36 2.34 37 2 C37 3.32 37 4.64 37 6 C38.65 6 40.3 6 42 6 C42 6.99 42 7.98 42 9 C39.525 8.505 39.525 8.505 37 8 C37 9.65 37 11.3 37 13 C38.65 12.67 40.3 12.34 42 12 C42 12.99 42 13.98 42 15 C39.36 15 36.72 15 34 15 C33.80543295 13.04235617 33.61955753 11.08384679 33.4375 9.125 C33.28087891 7.48917969 33.28087891 7.48917969 33.12109375 5.8203125 C33 3 33 3 34 1 C32.68 1.33 31.36 1.66 30 2 C29.86722656 2.61488281 29.73445313 3.22976562 29.59765625 3.86328125 C29.42105469 4.67152344 29.24445313 5.47976562 29.0625 6.3125 C28.80146484 7.51326172 28.80146484 7.51326172 28.53515625 8.73828125 C28 11 28 11 27 14 C24 13 24 13 22.3125 9.9375 C21.879375 8.968125 21.44625 7.99875 21 7 C20.01 9.31 19.02 11.62 18 14 C17.34 14 16.68 14 16 14 C14.35 10.04 12.7 6.08 11 2 C10.01 2.33 9.02 2.66 8 3 C7.01 2.67 6.02 2.34 5 2 C5 3.32 5 4.64 5 6 C6.32 6 7.64 6 9 6 C8.67 6.99 8.34 7.98 8 9 C7.01 8.67 6.02 8.34 5 8 C5 9.65 5 11.3 5 13 C6.65 12.67 8.3 12.34 10 12 C9.67 12.99 9.34 13.98 9 15 C6.36 15 3.72 15 1 15 C1.01160156 14.08476562 1.02320312 13.16953125 1.03515625 12.2265625 C1.04417969 11.03804687 1.05320312 9.84953125 1.0625 8.625 C1.07410156 7.44164062 1.08570312 6.25828125 1.09765625 5.0390625 C1.21466593 2.08078479 1.21466593 2.08078479 0 0 Z " fill="#927257" transform="translate(67,170)"/>
<path d="M0 0 C-0.33 0.99 -0.66 1.98 -1 3 C-3.49690308 2.0074699 -5.9874566 1.00526783 -8.46484375 -0.03515625 C-20.50880309 -5.03920255 -31.60914589 -5.28424133 -44 -1 C-49.64689321 1.53896836 -54.48668821 3.77261791 -58 9 C-59.5625 10.75 -59.5625 10.75 -61 12 C-61.66 12 -62.32 12 -63 12 C-63.2475 12.66 -63.495 13.32 -63.75 14 C-64.75989802 16.42375524 -65.86737648 18.58273585 -67.125 20.875 C-69.1491219 24.81828934 -69.36536428 27.61562867 -69 32 C-69.66 32 -70.32 32 -71 32 C-71 36.29 -71 40.58 -71 45 C-71.33 45 -71.66 45 -72 45 C-73.24572096 31.81160631 -73.86242041 22.48351488 -65.8125 11.375 C-49.13186055 -8.67009963 -22.59552232 -14.77174973 0 0 Z " fill="#7F5D3D" transform="translate(142,38)"/>
<path d="M0 0 C0.33 0 0.66 0 1 0 C1.01417969 0.90878906 1.02835937 1.81757812 1.04296875 2.75390625 C1.58788118 17.11308519 4.8591383 30.20087184 15 41 C26.12682775 50.88845988 38.7361539 52.72912977 53 54 C53 54.33 53 54.66 53 55 C39.55884555 55.87542589 29.4454203 55.86291069 18 48 C16.82050781 47.18982422 16.82050781 47.18982422 15.6171875 46.36328125 C7.16471606 39.72664493 0.63264613 28.64135421 -1 18 C-1.13902083 15.08200328 -1.13977639 12.17079881 -1.125 9.25 C-1.12886719 8.47011719 -1.13273437 7.69023438 -1.13671875 6.88671875 C-1.12670133 1.12670133 -1.12670133 1.12670133 0 0 Z " fill="#9B7960" transform="translate(69,68)"/>
<path d="M0 0 C2 1 2 1 2.703125 2.99609375 C2.88359375 3.80175781 3.0640625 4.60742188 3.25 5.4375 C3.44078125 6.24058594 3.6315625 7.04367188 3.828125 7.87109375 C3.88484375 8.57363281 3.9415625 9.27617187 4 10 C3.34 10.66 2.68 11.32 2 12 C2.33 12.66 2.66 13.32 3 14 C2.525625 14.86625 2.05125 15.7325 1.5625 16.625 C-0.44932829 20.97054911 -0.62225895 23.25527551 0 28 C2.3549963 30.08216876 2.3549963 30.08216876 5 31 C4.67 31.66 4.34 32.32 4 33 C-0.62 33 -5.24 33 -10 33 C-10 32.01 -10 31.02 -10 30 C-8.68 29.67 -7.36 29.34 -6 29 C-5.0116362 25.22624731 -4.72138726 23.55722547 -6.5 20 C-8.30639345 16.38721311 -8.18585993 14.81169264 -7 11 C-5.5625 9.125 -5.5625 9.125 -4 8 C-3.34 8 -2.68 8 -2 8 C-2 6.35 -2 4.7 -2 3 C-1.34 3 -0.68 3 0 3 C0 2.01 0 1.02 0 0 Z M-1 6 C0 9 0 9 0 9 Z M0 9 C1 11 1 11 1 11 Z " fill="#8F7148" transform="translate(103,132)"/>
<path d="M0 0 C1.35061523 0.00132935 1.35061523 0.00132935 2.72851562 0.00268555 C11.4887632 0.15821626 18.5535769 1.8652235 25.5 7.375 C25.17 8.035 24.84 8.695 24.5 9.375 C23.860625 9.106875 23.22125 8.83875 22.5625 8.5625 C21.551875 8.170625 20.54125 7.77875 19.5 7.375 C18.63955078 6.97861328 18.63955078 6.97861328 17.76171875 6.57421875 C8.48766776 2.77455902 -3.30676698 2.8876857 -12.75 6.125 C-18.84810621 8.75031763 -22.90635379 12.66356799 -27.5 17.375 C-28.83333333 18.70833333 -30.16666667 20.04166667 -31.5 21.375 C-32.1875 19.625 -32.1875 19.625 -32.5 17.375 C-31.125 15.25 -31.125 15.25 -29.5 13.375 C-29.17 12.715 -28.84 12.055 -28.5 11.375 C-27.51 11.375 -26.52 11.375 -25.5 11.375 C-25.5 10.715 -25.5 10.055 -25.5 9.375 C-23.83720673 8.3685725 -22.17016516 7.36914593 -20.5 6.375 C-19.84 5.385 -19.18 4.395 -18.5 3.375 C-16.5085944 2.99366701 -14.50720923 2.66174418 -12.5 2.375 C-8.33526213 -0.40149192 -4.90086139 -0.00847746 0 0 Z " fill="#896942" transform="translate(112.5,35.625)"/>
<path d="M0 0 C4.22042661 0.49940083 6.18355215 2.84670606 9.0625 5.8125 C9.91972656 6.68519531 10.77695313 7.55789062 11.66015625 8.45703125 C20.4104107 17.96690712 22.29478097 29.37467408 22.15234375 41.98828125 C21.62450355 52.42327597 21.62450355 52.42327597 17.875 56.0625 C17.25625 56.371875 16.6375 56.68125 16 57 C16.89617486 50.470726 16.89617486 50.470726 17.51953125 47.64453125 C19.83052604 34.92466562 17.21979179 23.66026732 10.20703125 12.99609375 C9 11 9 11 9 9 C8.01 9.33 7.02 9.66 6 10 C5.938125 9.443125 5.87625 8.88625 5.8125 8.3125 C4.67006456 5.06095298 2.46794619 3.34138484 0 1 C0 0.67 0 0.34 0 0 Z " fill="#9B7A59" transform="translate(140,39)"/>
<path d="M0 0 C3.63 0 7.26 0 11 0 C12 5 12 5 11.4375 7.0625 C10.85417393 9.64580117 11.65948445 10.79209204 13 13 C13.66 13 14.32 13 15 13 C15 12.34 15 11.68 15 11 C16.98 11.66 18.96 12.32 21 13 C19.13433512 9.37206002 19.13433512 9.37206002 16 7 C16 4.69 16 2.38 16 0 C18.31 0 20.62 0 23 0 C22.67 0.99 22.34 1.98 22 3 C21.01 3 20.02 3 19 3 C19 3.66 19 4.32 19 5 C19.639375 5.226875 20.27875 5.45375 20.9375 5.6875 C23 7 23 7 23.9375 9.4375 C24 12 24 12 22.77734375 13.6328125 C20.00157147 15.76802195 17.62418975 15.46520999 14.23046875 15.37109375 C11.01589854 14.83627033 9.22843991 13.30032507 7 11 C6.67 12.32 6.34 13.64 6 15 C4.68 14.67 3.36 14.34 2 14 C2.02320313 13.15695313 2.04640625 12.31390625 2.0703125 11.4453125 C2.08835938 10.34960938 2.10640625 9.25390625 2.125 8.125 C2.14820313 7.03445312 2.17140625 5.94390625 2.1953125 4.8203125 C2.30060534 1.8628949 2.30060534 1.8628949 0 0 Z M6 1 C6 2.98 6 4.96 6 7 C6.99 6.67 7.98 6.34 9 6 C8.65213292 4.02463255 8.65213292 4.02463255 8 2 C7.34 1.67 6.68 1.34 6 1 Z " fill="#7D5C50" transform="translate(145,170)"/>
<path d="M0 0 C0.33 0 0.66 0 1 0 C1.33 1.98 1.66 3.96 2 6 C2.99 6 3.98 6 5 6 C4 8 4 8 2 10 C2.3185177 12.10820797 2.3185177 12.10820797 3 14 C4.32 13.01 5.64 12.02 7 11 C8.125 14.75 8.125 14.75 7 17 C6.6947378 21.65275976 6.6947378 21.65275976 8 26 C8.99 26.33 9.98 26.66 11 27 C10.67 27.99 10.34 28.98 10 30 C5.38 30 0.76 30 -4 30 C-4 29.01 -4 28.02 -4 27 C-2.68 26.34 -1.36 25.68 0 25 C0.1799928 19.78020872 -0.02905192 15.92737019 -2 11 C-2.66 11 -3.32 11 -4 11 C-3.21681311 7.08406554 -1.60820142 3.63593365 0 0 Z M-1 5 C-1.66 6.65 -2.32 8.3 -3 10 C-2.34 10 -1.68 10 -1 10 C-0.67 8.35 -0.34 6.7 0 5 C-0.33 5 -0.66 5 -1 5 Z " fill="#A07F51" transform="translate(125,135)"/>
<path d="M0 0 C0.495 0.99 0.495 0.99 1 2 C-3.9839636 14.67660307 -13.77757794 23.42187818 -26 29 C-31.97063569 30.87084034 -37.2721968 31.25685903 -43.5 31.125 C-44.73363281 31.11146484 -44.73363281 31.11146484 -45.9921875 31.09765625 C-47.99492083 31.07436865 -49.99750154 31.03850959 -52 31 C-52 30.67 -52 30.34 -52 30 C-48.37 29.67 -44.74 29.34 -41 29 C-41 28.67 -41 28.34 -41 28 C-40.26136719 27.92523438 -39.52273437 27.85046875 -38.76171875 27.7734375 C-26.2587011 26.15297015 -16.40204841 20.45435975 -8 11 C-6.71743088 8.35329288 -6.71743088 8.35329288 -6 6 C-6.66 5.34 -7.32 4.68 -8 4 C-7.34 3.34 -6.68 2.68 -6 2 C-5.34 2.66 -4.68 3.32 -4 4 C-3.34 3.01 -2.68 2.02 -2 1 C-1.34 0.67 -0.68 0.34 0 0 Z " fill="#7D5B3F" transform="translate(158,93)"/>
<path d="M0 0 C0.33 0 0.66 0 1 0 C1 2.97 1 5.94 1 9 C1.66 9 2.32 9 3 9 C3 6.03 3 3.06 3 0 C9.0546875 -0.1953125 9.0546875 -0.1953125 11 0 C11.66 0.66 12.32 1.32 13 2 C10.03 1.67 7.06 1.34 4 1 C4.14133499 2.77119803 4.28823208 4.54195287 4.4375 6.3125 C4.51871094 7.29863281 4.59992188 8.28476563 4.68359375 9.30078125 C4.91812559 12.09375599 4.91812559 12.09375599 6 15 C5.34641919 17.00431449 4.67863055 19.0040278 4 21 C3.83142517 23.75065232 3.83142517 23.75065232 4 26 C3.67 25.34 3.34 24.68 3 24 C2.34 24 1.68 24 1 24 C1 26.31 1 28.62 1 31 C0.67 31 0.34 31 0 31 C-0.33 27.37 -0.66 23.74 -1 20 C-1.33 23.3 -1.66 26.6 -2 30 C-2.33 30 -2.66 30 -3 30 C-3.06058594 29.19175781 -3.12117188 28.38351563 -3.18359375 27.55078125 C-3.26738281 26.48214844 -3.35117187 25.41351563 -3.4375 24.3125 C-3.51871094 23.25675781 -3.59992187 22.20101562 -3.68359375 21.11328125 C-3.93772866 18.0400235 -3.93772866 18.0400235 -4.59765625 15.23046875 C-5 13 -5 13 -4 11 C-3.77377919 9.29636178 -3.59111527 7.58671299 -3.4375 5.875 C-3.35371094 4.96492187 -3.26992188 4.05484375 -3.18359375 3.1171875 C-3.12300781 2.41851562 -3.06242187 1.71984375 -3 1 C-2.67 1 -2.34 1 -2 1 C-1.67 3.64 -1.34 6.28 -1 9 C-0.67 6.03 -0.34 3.06 0 0 Z " fill="#84623A" transform="translate(65,132)"/>
<path d="M0 0 C4.5398773 -0.36809816 4.5398773 -0.36809816 6.5625 1.25 C7.036875 1.8275 7.51125 2.405 8 3 C8.598125 3.53625 9.19625 4.0725 9.8125 4.625 C15.89300395 11.22669 19.1708358 16.94570257 19 26 C16.77810176 23.77810176 16.07401108 21.91517292 15 19 C14.05125 19.20625 13.1025 19.4125 12.125 19.625 C11.09375 19.74875 10.0625 19.8725 9 20 C8.34 19.34 7.68 18.68 7 18 C8.65 17.01 10.3 16.02 12 15 C11.52797514 10.75177626 9.03344482 8.80010291 6 6 C3.47562314 7.0818758 2.0225394 7.97435171 0.1875 10.0625 C-2.73679717 12.65259178 -5.17982042 12.70614003 -9 13 C-8.67 12.01 -8.34 11.02 -8 10 C-7.05125 9.9175 -6.1025 9.835 -5.125 9.75 C-1.92113898 9.35242912 -1.92113898 9.35242912 -0.6875 7.0625 C-0.460625 6.381875 -0.23375 5.70125 0 5 C0.33 4.34 0.66 3.68 1 3 C0.67 2.01 0.34 1.02 0 0 Z " fill="#8D6F4E" transform="translate(130,46)"/>
<path d="M0 0 C2.1385485 2.1385485 2.42655063 3.13275314 3 6 C3.66 6 4.32 6 5 6 C5.66 7.98 6.32 9.96 7 12 C8.79232337 11.69128878 10.58384321 11.37790936 12.375 11.0625 C13.37273437 10.88847656 14.37046875 10.71445313 15.3984375 10.53515625 C17.96909656 10.12287938 17.96909656 10.12287938 20 9 C21.11634152 7.34948712 21.11634152 7.34948712 22.125 5.4375 C22.74375 4.303125 23.3625 3.16875 24 2 C24.99 2.66 25.98 3.32 27 4 C25.66201046 8.6829634 23.13180171 11.53607655 19 14 C16.01961208 14.86697743 13.08816279 15.14568098 10 15.375 C8.82824219 15.49681641 8.82824219 15.49681641 7.6328125 15.62109375 C3.22781286 16.02896409 -0.64082031 15.96404935 -5 15 C-5 14.01 -5 13.02 -5 12 C-3.35 12 -1.7 12 0 12 C0 8.04 0 4.08 0 0 Z " fill="#A98D5B" transform="translate(63,150)"/>
<path d="M0 0 C3.96 0 7.92 0 12 0 C12 0.66 12 1.32 12 2 C10.02 2.99 10.02 2.99 8 4 C7.95875 5.258125 7.9175 6.51625 7.875 7.8125 C7.85179687 8.52019531 7.82859375 9.22789062 7.8046875 9.95703125 C7.86745538 12.31359719 7.86745538 12.31359719 10 15 C10 15.99 10 16.98 10 18 C8.68 18 7.36 18 6 18 C5.34 18.66 4.68 19.32 4 20 C3.34 19.34 2.68 18.68 2 18 C2.32971479 14.70285207 2.6226839 13.3773161 5 11 C4.01 11.33 3.02 11.66 2 12 C1.67 10.35 1.34 8.7 1 7 C-0.65 10.3 -2.3 13.6 -4 17 C-5.3274855 13.01754349 -3.99907829 10.55210457 -2.5625 6.8125 C-2.19801758 5.83120117 -2.19801758 5.83120117 -1.82617188 4.83007812 C-1.2256707 3.21696714 -0.61390797 1.6080565 0 0 Z " fill="#C3A468" transform="translate(124,130)"/>
<path d="M0 0 C0.67546875 0.08378906 1.3509375 0.16757813 2.046875 0.25390625 C2.93890625 0.35574219 3.8309375 0.45757812 4.75 0.5625 C5.63171875 0.66691406 6.5134375 0.77132812 7.421875 0.87890625 C9.88432451 0.99456676 11.66538064 0.73638695 14 0 C14 0.99 14 1.98 14 3 C11 5 11 5 8 5 C8.55032098 8.4306283 8.55032098 8.4306283 10 12 C12.98434837 13.99425024 12.98434837 13.99425024 16 15 C13 16 13 16 10.3125 14.9375 C5.83747922 13.67098468 3.39862483 14.63490953 -1 16 C-0.34 17.65 0.32 19.3 1 21 C0.34 21.66 -0.32 22.32 -1 23 C-1.40992187 22.3503125 -1.81984375 21.700625 -2.2421875 21.03125 C-2.78101562 20.1959375 -3.31984375 19.360625 -3.875 18.5 C-4.40867187 17.6646875 -4.94234375 16.829375 -5.4921875 15.96875 C-5.98976563 15.3190625 -6.48734375 14.669375 -7 14 C-7.66 14 -8.32 14 -9 14 C-9 12.68 -9 11.36 -9 10 C-8.01 10 -7.02 10 -6 10 C-5.34 9.34 -4.68 8.68 -4 8 C-3.34 9.98 -2.68 11.96 -2 14 C0.64 13.34 3.28 12.68 6 12 C6 9.69 6 7.38 6 5 C5.195625 4.731875 4.39125 4.46375 3.5625 4.1875 C2.716875 3.795625 1.87125 3.40375 1 3 C0.67 2.01 0.34 1.02 0 0 Z " fill="#806048" transform="translate(108,82)"/>
<path d="M0 0 C5.28 0 10.56 0 16 0 C15.01 1.485 15.01 1.485 14 3 C12.68 2.67 11.36 2.34 10 2 C10 3.32 10 4.64 10 6 C11.65 6 13.3 6 15 6 C15 6.99 15 7.98 15 9 C12.525 8.505 12.525 8.505 10 8 C10 9.65 10 11.3 10 13 C11.65 12.67 13.3 12.34 15 12 C15 12.99 15 13.98 15 15 C12.36 15 9.72 15 7 15 C6.80543295 13.04235617 6.61955753 11.08384679 6.4375 9.125 C6.33308594 8.03445312 6.22867188 6.94390625 6.12109375 5.8203125 C6 3 6 3 7 1 C5.68 1.33 4.36 1.66 3 2 C2.86722656 2.61488281 2.73445313 3.22976562 2.59765625 3.86328125 C2.42105469 4.67152344 2.24445313 5.47976562 2.0625 6.3125 C1.88847656 7.11300781 1.71445313 7.91351563 1.53515625 8.73828125 C1 11 1 11 0 14 C-0.99 13.67 -1.98 13.34 -3 13 C-2.67 11.35 -2.34 9.7 -2 8 C-1.34 8 -0.68 8 0 8 C0 5.36 0 2.72 0 0 Z " fill="#7D5C42" transform="translate(94,170)"/>
<path d="M0 0 C2.80464398 2.72215445 5.37308453 5.44571817 7.8125 8.5 C15.78615842 17.78246599 28.13692357 21.06956263 40 22 C40 22.33 40 22.66 40 23 C29.47836132 23.51117273 21.57038908 22.78519454 12 18 C10.27191563 16.37066331 8.63269432 14.72151966 7 13 C6.37867187 12.36191406 5.75734375 11.72382812 5.1171875 11.06640625 C4.48039062 10.38449219 3.84359375 9.70257813 3.1875 9 C2.58292969 8.360625 1.97835937 7.72125 1.35546875 7.0625 C-0.30575658 4.53475656 -0.26267971 2.96673556 0 0 Z " fill="#937255" transform="translate(79,95)"/>
<path d="M0 0 C-0.33 0.99 -0.66 1.98 -1 3 C-3.49690308 2.0074699 -5.9874566 1.00526783 -8.46484375 -0.03515625 C-9.28082031 -0.37417969 -10.09679687 -0.71320312 -10.9375 -1.0625 C-11.75089844 -1.40410156 -12.56429687 -1.74570312 -13.40234375 -2.09765625 C-19.03007023 -4.05255071 -24.49509061 -4.13161286 -30.375 -4.0625 C-31.47908203 -4.05573242 -31.47908203 -4.05573242 -32.60546875 -4.04882812 C-34.40368158 -4.03715142 -36.20185197 -4.01922011 -38 -4 C-38 -4.99 -38 -5.98 -38 -7 C-24.73899774 -9.93636479 -11.34648026 -7.41772482 0 0 Z " fill="#755338" transform="translate(142,38)"/>
<path d="M0 0 C4.60139641 1.48868707 7.50227094 3.74629855 11 7 C11 7.66 11 8.32 11 9 C11.66 9.33 12.32 9.66 13 10 C13.8515625 12.06640625 13.8515625 12.06640625 14.625 14.5625 C14.88539063 15.38878906 15.14578125 16.21507813 15.4140625 17.06640625 C15.60742188 17.70449219 15.80078125 18.34257813 16 19 C16.66 19 17.32 19 18 19 C18 26.59 18 34.18 18 42 C17.67 42 17.34 42 17 42 C17 37.05 17 32.1 17 27 C16.34 27 15.68 27 15 27 C14.79697266 26.09121094 14.79697266 26.09121094 14.58984375 25.1640625 C12.20043267 15.86395951 7.67562172 8.81486494 0 3 C0 2.01 0 1.02 0 0 Z " fill="#8E7055" transform="translate(137,43)"/>
<path d="M0 0 C1.9375 0.75 1.9375 0.75 4 2 C4.75 4.125 4.75 4.125 5 6 C4.01 6.495 4.01 6.495 3 7 C2.34 6.67 1.68 6.34 1 6 C1.30904171 8.27130656 1.62234907 10.54203305 1.9375 12.8125 C2.11152344 14.07707031 2.28554687 15.34164062 2.46484375 16.64453125 C2.90392455 19.98321703 2.90392455 19.98321703 4 23 C-4.29565217 20.70434783 -4.29565217 20.70434783 -7.0625 17.9375 C-8 16 -8 16 -8 14 C-8.99 13.67 -9.98 13.34 -11 13 C-11 12.34 -11 11.68 -11 11 C-10.34 11 -9.68 11 -9 11 C-9 9.35 -9 7.7 -9 6 C-8.34 5.67 -7.68 5.34 -7 5 C-6.98582031 5.68707031 -6.97164063 6.37414062 -6.95703125 7.08203125 C-6.81281183 9.80660898 -6.60862014 12.3383584 -6 15 C-3.62744885 17.21306951 -3.62744885 17.21306951 -1 18 C-1.01160156 17.28714844 -1.02320312 16.57429688 -1.03515625 15.83984375 C-1.08606026 10.43674634 -0.94608271 5.32171525 0 0 Z " fill="#AA8C65" transform="translate(98,86)"/>
<path d="M0 0 C-0.33 0.99 -0.66 1.98 -1 3 C-1.86625 2.7525 -2.7325 2.505 -3.625 2.25 C-8.05274136 1.92201916 -9.5919558 3.27356464 -13 6 C-14.79394446 7.62351109 -14.79394446 7.62351109 -16 9 C-16.99 8.67 -17.98 8.34 -19 8 C-18.02133662 6.85373678 -17.04205413 5.70800212 -16.0625 4.5625 C-15.51722656 3.92441406 -14.97195312 3.28632812 -14.41015625 2.62890625 C-13.63204305 1.73008851 -12.84063472 0.84063472 -12 0 C-15.96 0 -19.92 0 -24 0 C-24 -0.66 -24 -1.32 -24 -2 C-24.66 -2.33 -25.32 -2.66 -26 -3 C-17.28843621 -6.56382155 -8.16863153 -4.08431576 0 0 Z " fill="#8F714F" transform="translate(132,45)"/>
<path d="M0 0 C0.66 1.32 1.32 2.64 2 4 C2.66 3.67 3.32 3.34 4 3 C4 5.64 4 8.28 4 11 C4.66 11.33 5.32 11.66 6 12 C6.4140625 14.28515625 6.4140625 14.28515625 6.625 17.0625 C6.69976562 17.98160156 6.77453125 18.90070313 6.8515625 19.84765625 C6.90054688 20.55792969 6.94953125 21.26820312 7 22 C7.99 22.33 8.98 22.66 10 23 C10 23.99 10 24.98 10 26 C9.34 26 8.68 26 8 26 C9.98 28.64 11.96 31.28 14 34 C12.68 33.34 11.36 32.68 10 32 C10 31.34 10 30.68 10 30 C9.01 29.67 8.02 29.34 7 29 C0.36981165 20.18598106 -0.3585455 10.65676899 0 0 Z " fill="#A18554" transform="translate(79,71)"/>
<path d="M0 0 C-1 3 -1 3 -3 4 C-3 5.65 -3 7.3 -3 9 C-3.99 8.01 -4.98 7.02 -6 6 C-5.71125 6.556875 -5.4225 7.11375 -5.125 7.6875 C-3.9586747 10.08494645 -2.9660119 12.51596939 -2 15 C-2.99 15 -3.98 15 -5 15 C-6.65373725 12.59168865 -7.94102652 10.06248257 -9.3046875 7.48046875 C-11.21875298 4.67993515 -13.08445566 3.64555299 -16 2 C-16 1.34 -16 0.68 -16 0 C-10.39436958 -0.82622671 -5.57710648 -1.06795656 0 0 Z " fill="#8C6A3A" transform="translate(153,130)"/>
<path d="M0 0 C3.17133907 1.45924941 5.78027726 3.27572814 8.5625 5.375 C18.96253506 12.64595474 29.67970034 13.90229452 42 15 C42 15.33 42 15.66 42 16 C28.80443693 16.85943046 18.09081023 17.13529212 7 9 C4.32029532 6.53780382 1.9834196 4.05715052 0 1 C0 0.67 0 0.34 0 0 Z " fill="#927154" transform="translate(80,107)"/>
<path d="M0 0 C1.32 0 2.64 0 4 0 C4 2.64 4 5.28 4 8 C5.98 8.66 7.96 9.32 10 10 C10 10.99 10 11.98 10 13 C4.72 13 -0.56 13 -6 13 C-6 12.01 -6 11.02 -6 10 C-4.02 9.67 -2.04 9.34 0 9 C0 6.03 0 3.06 0 0 Z " fill="#B0924D" transform="translate(152,152)"/>
<path d="M0 0 C4.29 0 8.58 0 13 0 C11.01892543 3.96214913 9.08528008 5.91471992 6 9 C5.505 9.928125 5.01 10.85625 4.5 11.8125 C4.005 12.534375 3.51 13.25625 3 14 C0.3125 14.3125 0.3125 14.3125 -2 14 C-2.33 12.68 -2.66 11.36 -3 10 C-3.66 10 -4.32 10 -5 10 C-5 9.01 -5 8.02 -5 7 C-4.34 7 -3.68 7 -3 7 C-2.01 8.485 -2.01 8.485 -1 10 C-0.01 10 0.98 10 2 10 C2.66 8.02 3.32 6.04 4 4 C2.68 3.34 1.36 2.68 0 2 C0 1.34 0 0.68 0 0 Z M-1 11 C-0.67 11.66 -0.34 12.32 0 13 C0.33 12.34 0.66 11.68 1 11 C0.34 11 -0.32 11 -1 11 Z " fill="#917152" transform="translate(158,130)"/>
<path d="M0 0 C4.22042661 0.49940083 6.18355215 2.84670606 9.0625 5.8125 C9.91972656 6.68519531 10.77695313 7.55789062 11.66015625 8.45703125 C15.34710699 12.46405117 17.66219163 15.6487665 19 21 C18.546875 23.1875 18.546875 23.1875 18 25 C9 12.75 9 12.75 9 9 C8.01 9.33 7.02 9.66 6 10 C5.938125 9.443125 5.87625 8.88625 5.8125 8.3125 C4.67006456 5.06095298 2.46794619 3.34138484 0 1 C0 0.67 0 0.34 0 0 Z " fill="#A08367" transform="translate(140,39)"/>
<path d="M0 0 C0.33 0 0.66 0 1 0 C1.33 1.98 1.66 3.96 2 6 C2.99 6 3.98 6 5 6 C4 8 4 8 2 10 C2.3185177 12.10820797 2.3185177 12.10820797 3 14 C4.32 13.01 5.64 12.02 7 11 C7.625 12.875 7.625 12.875 8 15 C7.34 15.66 6.68 16.32 6 17 C5.67 17 5.34 17 5 17 C4.67 20.63 4.34 24.26 4 28 C3.67 28 3.34 28 3 28 C2.67 24.37 2.34 20.74 2 17 C1.34 17 0.68 17 0 17 C-0.66 15.02 -1.32 13.04 -2 11 C-2.66 11 -3.32 11 -4 11 C-3.21681311 7.08406554 -1.60820142 3.63593365 0 0 Z M-1 5 C-1.66 6.65 -2.32 8.3 -3 10 C-2.34 10 -1.68 10 -1 10 C-0.67 8.35 -0.34 6.7 0 5 C-0.33 5 -0.66 5 -1 5 Z " fill="#876539" transform="translate(125,135)"/>
<path d="M0 0 C3.3 0 6.6 0 10 0 C10.33 0.66 10.66 1.32 11 2 C9.02 2 7.04 2 5 2 C5 3.32 5 4.64 5 6 C6.32 6.33 7.64 6.66 9 7 C8.525625 7.433125 8.05125 7.86625 7.5625 8.3125 C5.76313043 10.02309613 5.76313043 10.02309613 5 13 C6.65 12.67 8.3 12.34 10 12 C9.67 12.99 9.34 13.98 9 15 C6.36 15 3.72 15 1 15 C1.33 10.38 1.66 5.76 2 1 C1.34 0.67 0.68 0.34 0 0 Z " fill="#7D5B3D" transform="translate(134,170)"/>
<path d="M0 0 C4.25355958 3.83857816 4.9014954 6.50747702 6 12 C6.33 12 6.66 12 7 12 C7 13.65 7 15.3 7 17 C6.38125 17.04125 5.7625 17.0825 5.125 17.125 C4.42375 17.41375 3.7225 17.7025 3 18 C1.6954344 20.99615946 1.6954344 20.99615946 1 24 C0.01 24 -0.98 24 -2 24 C-1.484375 22.824375 -0.96875 21.64875 -0.4375 20.4375 C1.86204744 13.73227757 0.75584099 6.91184717 0 0 Z " fill="#A7875E" transform="translate(83,137)"/>
<path d="M0 0 C0.99 0 1.98 0 3 0 C2.33585919 3.98484488 1.14488176 7.51016972 -0.375 11.25 C-0.79523438 12.30703125 -1.21546875 13.3640625 -1.6484375 14.453125 C-3 17 -3 17 -6 18 C-6.99 15.03 -7.98 12.06 -9 9 C-7.68 9 -6.36 9 -5 9 C-4.67 9.33 -4.34 9.66 -4 10 C-3.79503906 9.36191406 -3.59007813 8.72382813 -3.37890625 8.06640625 C-3.10949219 7.24011719 -2.84007813 6.41382813 -2.5625 5.5625 C-2.16224609 4.32693359 -2.16224609 4.32693359 -1.75390625 3.06640625 C-1 1 -1 1 0 0 Z " fill="#84643A" transform="translate(118,146)"/>
<path d="M0 0 C0.515625 0.391875 1.03125 0.78375 1.5625 1.1875 C-0.7475 1.5175 -3.0575 1.8475 -5.4375 2.1875 C-5.4375 2.8475 -5.4375 3.5075 -5.4375 4.1875 C-13.16638819 6.14153042 -20.48792008 6.41178282 -28.4375 6.1875 C-26.4375 3.1875 -26.4375 3.1875 -23.28515625 2.4921875 C-22.03605469 2.35039063 -20.78695312 2.20859375 -19.5 2.0625 C-14.38991082 1.47952349 -14.38991082 1.47952349 -9.4375 0.1875 C-9.4375 0.8475 -9.4375 1.5075 -9.4375 2.1875 C-8.365 1.65125 -7.2925 1.115 -6.1875 0.5625 C-2.4375 -0.8125 -2.4375 -0.8125 0 0 Z " fill="#74532F" transform="translate(137.4375,112.8125)"/>
<path d="M0 0 C1.98 0 3.96 0 6 0 C5.67 0.66 5.34 1.32 5 2 C4.93003986 3.70702735 4.91559846 5.41668003 4.9375 7.125 C4.95103516 8.49011719 4.95103516 8.49011719 4.96484375 9.8828125 C4.97644531 10.58148438 4.98804687 11.28015625 5 12 C6.65 12 8.3 12 10 12 C10 12.99 10 13.98 10 15 C7.03 15 4.06 15 1 15 C0.67 10.05 0.34 5.1 0 0 Z " fill="#B18E6A" transform="translate(123,170)"/>
<path d="M0 0 C1.65 0 3.3 0 5 0 C5 3.96 5 7.92 5 12 C6.65 11.67 8.3 11.34 10 11 C9.67 12.32 9.34 13.64 9 15 C6.03 15 3.06 15 0 15 C0 10.05 0 5.1 0 0 Z " fill="#A4835D" transform="translate(112,170)"/>
<path d="M0 0 C0.33 0 0.66 0 1 0 C1.33 3.63 1.66 7.26 2 11 C1.34 11 0.68 11 0 11 C-1.00344253 17.30735307 -1.50873071 23.63440427 -2 30 C-2.33 30 -2.66 30 -3 30 C-3.06058594 29.19175781 -3.12117188 28.38351563 -3.18359375 27.55078125 C-3.26738281 26.48214844 -3.35117187 25.41351563 -3.4375 24.3125 C-3.51871094 23.25675781 -3.59992187 22.20101562 -3.68359375 21.11328125 C-3.93772866 18.0400235 -3.93772866 18.0400235 -4.59765625 15.23046875 C-5 13 -5 13 -4 11 C-3.77377919 9.29636178 -3.59111527 7.58671299 -3.4375 5.875 C-3.35371094 4.96492187 -3.26992188 4.05484375 -3.18359375 3.1171875 C-3.12300781 2.41851562 -3.06242187 1.71984375 -3 1 C-2.67 1 -2.34 1 -2 1 C-1.67 3.64 -1.34 6.28 -1 9 C-0.67 6.03 -0.34 3.06 0 0 Z " fill="#6C4B1D" transform="translate(65,132)"/>
<path d="M0 0 C2.20052594 2.20052594 2.3929392 3.05141896 3 6 C3.3403125 7.0209375 3.3403125 7.0209375 3.6875 8.0625 C4 10 4 10 2 13 C1.34 12.34 0.68 11.68 0 11 C-0.99 13.31 -1.98 15.62 -3 18 C-3.66 17.01 -4.32 16.02 -5 15 C-4.1875 12.125 -4.1875 12.125 -3 9 C-2.20318682 6.35815459 -2.20318682 6.35815459 -2 4 C-2.66 3.34 -3.32 2.68 -4 2 C-3.01 2 -2.02 2 -1 2 C-0.67 1.34 -0.34 0.68 0 0 Z " fill="#8C6A43" transform="translate(95,76)"/>
<path d="M0 0 C0.99 0.33 1.98 0.66 3 1 C1.18181818 14.81818182 1.18181818 14.81818182 -2 18 C-2.23075082 19.34747084 -2.41153063 20.70377565 -2.5625 22.0625 C-2.706875 23.361875 -2.85125 24.66125 -3 26 C-3.33 26 -3.66 26 -4 26 C-4.55714963 16.54393261 -3.25738186 8.8850907 0 0 Z " fill="#9B7C4B" transform="translate(78,54)"/>
<path d="M0 0 C2.31 0 4.62 0 7 0 C6.01 0.495 6.01 0.495 5 1 C5.03480469 2.04800781 5.06960937 3.09601563 5.10546875 4.17578125 C5.13360937 5.55467147 5.16090924 6.93357902 5.1875 8.3125 C5.22520508 9.34793945 5.22520508 9.34793945 5.26367188 10.40429688 C5.33834499 15.55674183 5.33834499 15.55674183 3.48828125 17.98046875 C2.99714844 18.31691406 2.50601563 18.65335938 2 19 C1.34 18.67 0.68 18.34 0 18 C0.33 17.34 0.66 16.68 1 16 C1.23172827 13.45384991 1.41894529 10.92603775 1.5625 8.375 C1.60568359 7.66859375 1.64886719 6.9621875 1.69335938 6.234375 C1.79944751 4.48981463 1.90022889 2.74493303 2 1 C1.34 0.67 0.68 0.34 0 0 Z " fill="#B59A76" transform="translate(59,170)"/>
<path d="M0 0 C0.99 0.66 1.98 1.32 3 2 C3 3.32 3 4.64 3 6 C6.63 6 10.26 6 14 6 C14 6.33 14 6.66 14 7 C-4.25008449 7.81514025 -4.25008449 7.81514025 -12 3 C-12.33 2.34 -12.66 1.68 -13 1 C-11.8553125 1.2475 -11.8553125 1.2475 -10.6875 1.5 C-7.96403764 2.09145396 -7.96403764 2.09145396 -5 2 C-2.98848259 2.63106429 -0.98636298 3.29373761 1 4 C0.67 2.68 0.34 1.36 0 0 Z " fill="#81623E" transform="translate(109,106)"/>
<path d="M0 0 C0.99 0 1.98 0 3 0 C3.433125 0.45375 3.86625 0.9075 4.3125 1.375 C6.64356983 3.61973391 8.89102626 4.22275657 12 5 C12.99 4.67 13.98 4.34 15 4 C14.67 5.32 14.34 6.64 14 8 C13.34 8 12.68 8 12 8 C12 8.66 12 9.32 12 10 C11.46375 9.71125 10.9275 9.4225 10.375 9.125 C7.64719516 7.83288192 4.87387282 6.91441408 2 6 C2.33 6.99 2.66 7.98 3 9 C2.01 9.495 2.01 9.495 1 10 C0.67 6.7 0.34 3.4 0 0 Z " fill="#896B4D" transform="translate(136,65)"/>
<path d="M0 0 C0.68835938 0.36222656 1.37671875 0.72445312 2.0859375 1.09765625 C2.59382813 1.37480469 3.10171875 1.65195312 3.625 1.9375 C3.295 2.9275 2.965 3.9175 2.625 4.9375 C1.985625 4.669375 1.34625 4.40125 0.6875 4.125 C-0.323125 3.733125 -1.33375 3.34125 -2.375 2.9375 C-2.96023437 2.68484375 -3.54546875 2.4321875 -4.1484375 2.171875 C-11.65293014 -0.76091523 -19.41773842 -0.77935818 -27.375 -1.0625 C-27.375 -1.3925 -27.375 -1.7225 -27.375 -2.0625 C-24.66704274 -2.25851027 -21.95900195 -2.44454839 -19.25 -2.625 C-18.48945312 -2.68107422 -17.72890625 -2.73714844 -16.9453125 -2.79492188 C-10.78071432 -3.19349503 -5.56214921 -2.97287285 0 0 Z " fill="#755634" transform="translate(134.375,40.0625)"/>
<path d="M0 0 C2.0362449 1.01812245 4.06360955 2.03469612 6.0625 3.125 C8.10136548 4.20579336 8.10136548 4.20579336 11 4 C11 5.32 11 6.64 11 8 C12.98 7.67 14.96 7.34 17 7 C16.67 7.66 16.34 8.32 16 9 C12.04 9 8.08 9 4 9 C3.34 7.35 2.68 5.7 2 4 C1.34 3.67 0.68 3.34 0 3 C0 2.01 0 1.02 0 0 Z " fill="#C2A969" transform="translate(108,103)"/>
<path d="M0 0 C0.66 0 1.32 0 2 0 C2.33 1.65 2.66 3.3 3 5 C2.01 5 1.02 5 0 5 C-0.67673447 8.40320934 -0.67673447 8.40320934 -1 12 C-0.34 12.66 0.32 13.32 1 14 C0.525625 14.391875 0.05125 14.78375 -0.4375 15.1875 C-2.35179633 17.40808374 -2.61266988 19.13375709 -3 22 C-3.33 22 -3.66 22 -4 22 C-4.51345509 13.69914269 -3.70721995 7.48064025 0 0 Z " fill="#A28153" transform="translate(84,58)"/>
<path d="M0 0 C0.28875 0.61875 0.5775 1.2375 0.875 1.875 C1.93720042 4.13325765 1.93720042 4.13325765 4 6 C4.66 6.66 5.32 7.32 6 8 C5.34 8 4.68 8 4 8 C4.66 9.65 5.32 11.3 6 13 C5.34 13.66 4.68 14.32 4 15 C3.38511719 14.02546875 3.38511719 14.02546875 2.7578125 13.03125 C1.94957031 11.77828125 1.94957031 11.77828125 1.125 10.5 C0.59132813 9.6646875 0.05765625 8.829375 -0.4921875 7.96875 C-0.98976563 7.3190625 -1.48734375 6.669375 -2 6 C-2.66 6 -3.32 6 -4 6 C-4 4.68 -4 3.36 -4 2 C-3.01 2 -2.02 2 -1 2 C-0.67 1.34 -0.34 0.68 0 0 Z " fill="#8C6F4D" transform="translate(103,90)"/>
<path d="M0 0 C3 1 3 1 4.1875 3.125 C5.14531259 6.51418301 5.13746202 9.49471861 5 13 C2.77810176 10.77810176 2.07401108 8.91517292 1 6 C0.05125 6.20625 -0.8975 6.4125 -1.875 6.625 C-2.90625 6.74875 -3.9375 6.8725 -5 7 C-5.66 6.34 -6.32 5.68 -7 5 C-2.25 2 -2.25 2 0 2 C0 1.34 0 0.68 0 0 Z " fill="#8D6E54" transform="translate(144,59)"/>
<path d="M0 0 C6.27 0 12.54 0 19 0 C19 0.33 19 0.66 19 1 C13.555 1.495 13.555 1.495 8 2 C7.87625 3.464375 7.7525 4.92875 7.625 6.4375 C7.4140625 8.93359375 7.4140625 8.93359375 7 11 C6.01 11.495 6.01 11.495 5 12 C5 9.03 5 6.06 5 3 C3.35 3 1.7 3 0 3 C0 2.01 0 1.02 0 0 Z " fill="#967652" transform="translate(58,130)"/>
<path d="M0 0 C1.65 0 3.3 0 5 0 C6.125 4.75 6.125 4.75 5 7 C4.01 7.495 4.01 7.495 3 8 C3.33 8.99 3.66 9.98 4 11 C3.01 11.495 3.01 11.495 2 12 C-0.05257931 8.55166676 -1.0632763 6.68338409 -0.6875 2.625 C-0.460625 1.75875 -0.23375 0.8925 0 0 Z " fill="#AF925F" transform="translate(96,143)"/>
<path d="M0 0 C0.66 0.33 1.32 0.66 2 1 C2 4 2 4 1 6 C0.4225 6.226875 -0.155 6.45375 -0.75 6.6875 C-4.14509559 8.66797243 -5.88170813 11.75311 -8 15 C-8.66 13.68 -9.32 12.36 -10 11 C-8.89718873 9.72799029 -7.79269231 8.45744147 -6.6875 7.1875 C-6.07261719 6.47980469 -5.45773438 5.77210937 -4.82421875 5.04296875 C-3.26665665 3.29863261 -1.67341125 1.63221959 0 0 Z " fill="#7F5C3D" transform="translate(95,46)"/>
<path d="M0 0 C0.99 0.66 1.98 1.32 3 2 C1.5661989 7.01830384 -0.7898897 9.13712499 -5 12 C-7.3125 11.9375 -7.3125 11.9375 -9 11 C-9.33 10.34 -9.66 9.68 -10 9 C-9.0925 9 -8.185 9 -7.25 9 C-3.96539372 8.35436499 -3.96539372 8.35436499 -2.7109375 6.15234375 C-1.71788325 4.12694174 -0.81443345 2.10315462 0 0 Z " fill="#7A5E30" transform="translate(87,152)"/>
<path d="M0 0 C0.33 0.66 0.66 1.32 1 2 C1.66 2 2.32 2 3 2 C4.42258812 5.82320557 5.24042276 8.91281305 5 13 C5.66 13.33 6.32 13.66 7 14 C6.01 15.485 6.01 15.485 5 17 C4.67 16.01 4.34 15.02 4 14 C3.01 14.495 3.01 14.495 2 15 C2 14.01 2 13.02 2 12 C1.34 12 0.68 12 0 12 C0.185625 11.13375 0.37125 10.2675 0.5625 9.375 C1.00667933 5.94847372 0.71954492 3.35787629 0 0 Z " fill="#BA9B67" transform="translate(109,143)"/>
<path d="M0 0 C-0.99 0.33 -1.98 0.66 -3 1 C-3.33 1.66 -3.66 2.32 -4 3 C-8.29 3 -12.58 3 -17 3 C-17 2.34 -17 1.68 -17 1 C-17.66 0.67 -18.32 0.34 -19 0 C-12.35872858 -2.71688376 -6.88640495 -1.47000434 0 0 Z " fill="#74552D" transform="translate(125,42)"/>
<path d="M0 0 C0.66 0 1.32 0 2 0 C2 3.3 2 6.6 2 10 C1.34 10 0.68 10 0 10 C-0.33 10.99 -0.66 11.98 -1 13 C-4.0625 14.6875 -4.0625 14.6875 -7 16 C-5.9313255 12.69682428 -4.62835158 10.46563798 -2.3125 7.9375 C0.30676286 5.31487682 0.30676286 5.31487682 -0.25 2.6875 C-0.4975 2.130625 -0.745 1.57375 -1 1 C-0.67 0.67 -0.34 0.34 0 0 Z " fill="#947758" transform="translate(135,66)"/>
<path d="M0 0 C0.33 0 0.66 0 1 0 C1.33 7.26 1.66 14.52 2 22 C-1.37686294 17.49751608 -1.37686294 17.49751608 -1.328125 13.92578125 C-1.32296875 13.17619141 -1.3178125 12.42660156 -1.3125 11.65429688 C-1.291875 10.88150391 -1.27125 10.10871094 -1.25 9.3125 C-1.24484375 8.52810547 -1.2396875 7.74371094 -1.234375 6.93554688 C-1.15442868 1.15442868 -1.15442868 1.15442868 0 0 Z " fill="#A18154" transform="translate(69,68)"/>
<path d="M0 0 C2.475 0.495 2.475 0.495 5 1 C5.36340286 2.76896102 5.71540883 4.54026626 6.0625 6.3125 C6.25972656 7.29863281 6.45695313 8.28476563 6.66015625 9.30078125 C7 12 7 12 6 15 C4.68 14.67 3.36 14.34 2 14 C2.02320313 13.15695313 2.04640625 12.31390625 2.0703125 11.4453125 C2.08835938 10.34960938 2.10640625 9.25390625 2.125 8.125 C2.14820313 7.03445312 2.17140625 5.94390625 2.1953125 4.8203125 C2.30060534 1.8628949 2.30060534 1.8628949 0 0 Z " fill="#94754C" transform="translate(145,170)"/>
<path d="M0 0 C0.99 0.33 1.98 0.66 3 1 C3.99 1 4.98 1 6 1 C1.25 5 1.25 5 -1 5 C-1.33 5.99 -1.66 6.98 -2 8 C-3.98 8.33 -5.96 8.66 -8 9 C-8 9.66 -8 10.32 -8 11 C-8.99 10.67 -9.98 10.34 -11 10 C-11.33 9.01 -11.66 8.02 -12 7 C-7.545 6.505 -7.545 6.505 -3 6 C-2.67 4.68 -2.34 3.36 -2 2 C-1.34 2 -0.68 2 0 2 C0 1.34 0 0.68 0 0 Z " fill="#6D4E2B" transform="translate(135,102)"/>
<path d="M0 0 C4.21814817 3.9700218 7.61227103 8.30840284 11 13 C8.19521985 12.91750647 6.46032756 12.39995673 4.33203125 10.55078125 C1.74407271 7.71693591 0.11946375 5.9357994 -0.375 2.0625 C-0.25125 1.381875 -0.1275 0.70125 0 0 Z " fill="#93735D" transform="translate(79,95)"/>
<path d="M0 0 C0.33 0.66 0.66 1.32 1 2 C1.99 2.33 2.98 2.66 4 3 C1.25676938 6.77194211 -2.6910943 7.12815916 -7 8 C-7.99 8.20625 -8.98 8.4125 -10 8.625 C-10.66 8.74875 -11.32 8.8725 -12 9 C-12 8.34 -12 7.68 -12 7 C-11.30132812 6.66226563 -10.60265625 6.32453125 -9.8828125 5.9765625 C-8.97273437 5.53054687 -8.06265625 5.08453125 -7.125 4.625 C-6.22007812 4.18414062 -5.31515625 3.74328125 -4.3828125 3.2890625 C-1.90465528 2.09497301 -1.90465528 2.09497301 0 0 Z " fill="#8F714A" transform="translate(140,106)"/>
<path d="M0 0 C0.33 0.66 0.66 1.32 1 2 C-0.21484375 4.6015625 -0.21484375 4.6015625 -1.9375 7.625 C-2.50339844 8.62789062 -3.06929687 9.63078125 -3.65234375 10.6640625 C-4.09707031 11.43492188 -4.54179687 12.20578125 -5 13 C-6.0625 11.1875 -6.0625 11.1875 -7 9 C-6.67 8.01 -6.34 7.02 -6 6 C-6.66 5.34 -7.32 4.68 -8 4 C-7.34 3.34 -6.68 2.68 -6 2 C-5.34 2.66 -4.68 3.32 -4 4 C-3.34 3.01 -2.68 2.02 -2 1 C-1.34 0.67 -0.68 0.34 0 0 Z " fill="#7B583C" transform="translate(158,93)"/>
<path d="M0 0 C0.48210937 0.42152344 0.96421875 0.84304687 1.4609375 1.27734375 C2.09257812 1.82519531 2.72421875 2.37304688 3.375 2.9375 C4.00148437 3.48277344 4.62796875 4.02804688 5.2734375 4.58984375 C6.95632334 6.06958624 6.95632334 6.06958624 9 7 C9.33 6.34 9.66 5.68 10 5 C10 6.65 10 8.3 10 10 C9.01 10 8.02 10 7 10 C6.67 10.66 6.34 11.32 6 12 C5.5875 11.21625 5.175 10.4325 4.75 9.625 C2.92328152 6.88492228 1.92303045 6.26664653 -1 5 C-1.33 4.34 -1.66 3.68 -2 3 C-1.34 2.67 -0.68 2.34 0 2 C0 1.34 0 0.68 0 0 Z " fill="#846642" transform="translate(138,75)"/>
<path d="M0 0 C6.10642479 -0.78287497 10.00459579 1.89174849 15 5 C14.67 5.99 14.34 6.98 14 8 C9.02790438 6.23570801 4.56561939 3.6060834 0 1 C0 0.67 0 0.34 0 0 Z " fill="#856646" transform="translate(127,33)"/>
<path d="M0 0 C2.31 0 4.62 0 7 0 C6.67 0.99 6.34 1.98 6 3 C5.01 3 4.02 3 3 3 C3 3.66 3 4.32 3 5 C4.32 5.66 5.64 6.32 7 7 C6.01 8.485 6.01 8.485 5 10 C2.5 8.9375 2.5 8.9375 0 7 C-0.3125 3.3125 -0.3125 3.3125 0 0 Z " fill="#8F6B5B" transform="translate(161,170)"/>
<path d="M0 0 C2.31 0 4.62 0 7 0 C7.6875 2.25 7.6875 2.25 8 5 C6.625 7.1875 6.625 7.1875 5 9 C4.67 9.66 4.34 10.32 4 11 C0.85041169 7.57653445 0.43820891 4.55737263 0 0 Z M2 1 C2 2.98 2 4.96 2 7 C2.99 6.67 3.98 6.34 5 6 C4.65213292 4.02463255 4.65213292 4.02463255 4 2 C3.34 1.67 2.68 1.34 2 1 Z " fill="#7A5938" transform="translate(149,170)"/>
<path d="M0 0 C0.53109375 0.37898438 1.0621875 0.75796875 1.609375 1.1484375 C0.619375 1.1484375 -0.370625 1.1484375 -1.390625 1.1484375 C-1.390625 1.8084375 -1.390625 2.4684375 -1.390625 3.1484375 C-3.1814235 3.65153808 -4.97329411 4.15082378 -6.765625 4.6484375 C-8.26222656 5.06609375 -8.26222656 5.06609375 -9.7890625 5.4921875 C-12.390625 6.1484375 -12.390625 6.1484375 -14.390625 6.1484375 C-14.390625 5.4884375 -14.390625 4.8284375 -14.390625 4.1484375 C-12.48272468 3.25448421 -10.56388694 2.38384416 -8.640625 1.5234375 C-7.57328125 1.03617188 -6.5059375 0.54890625 -5.40625 0.046875 C-2.390625 -0.8515625 -2.390625 -0.8515625 0 0 Z " fill="#7E5D35" transform="translate(105.390625,31.8515625)"/>
<path d="M0 0 C1.98 0.99 3.96 1.98 6 3 C5.67 3.66 5.34 4.32 5 5 C-0.28 5 -5.56 5 -11 5 C-11 4.01 -11 3.02 -11 2 C-9.35 1.67 -7.7 1.34 -6 1 C-6 1.99 -6 2.98 -6 4 C-4.02 3.67 -2.04 3.34 0 3 C0 2.01 0 1.02 0 0 Z " fill="#76562F" transform="translate(157,160)"/>
<path d="M0 0 C4.29 0 8.58 0 13 0 C10.75 4.5 10.75 4.5 7 6 C7.33 5.01 7.66 4.02 8 3 C7.34 2.67 6.68 2.34 6 2 C5.67 2.66 5.34 3.32 5 4 C2.525 3.01 2.525 3.01 0 2 C0 1.34 0 0.68 0 0 Z " fill="#825F37" transform="translate(158,130)"/>
<path d="M0 0 C0.33 0 0.66 0 1 0 C1.01417969 0.68707031 1.02835937 1.37414062 1.04296875 2.08203125 C1.18718817 4.80660898 1.39137986 7.3383584 2 10 C4.37255115 12.21306951 4.37255115 12.21306951 7 13 C6.67 13.99 6.34 14.98 6 16 C2.58841744 14.86280581 1.88145399 13.95657056 0 11 C0 10.34 0 9.68 0 9 C-0.99 8.67 -1.98 8.34 -3 8 C-3 7.34 -3 6.68 -3 6 C-2.34 6 -1.68 6 -1 6 C-1.0309375 4.7934375 -1.0309375 4.7934375 -1.0625 3.5625 C-1 1 -1 1 0 0 Z " fill="#A88B62" transform="translate(90,91)"/>
<path d="M0 0 C1.41377341 2.63904371 2.37240135 5.07120629 3 8 C3.66 8 4.32 8 5 8 C5 8.99 5 9.98 5 11 C4.34 11 3.68 11 3 11 C4.98 13.64 6.96 16.28 9 19 C7.68 18.34 6.36 17.68 5 17 C5 16.34 5 15.68 5 15 C4.01 14.67 3.02 14.34 2 14 C-0.46149406 10.39566941 -1.22441292 7.8824926 -0.6875 3.625 C-0.460625 2.42875 -0.23375 1.2325 0 0 Z " fill="#805E3F" transform="translate(84,86)"/>
<path d="M0 0 C0 7.59 0 15.18 0 23 C-0.33 23 -0.66 23 -1 23 C-1 18.05 -1 13.1 -1 8 C-1.66 8 -2.32 8 -3 8 C-3.33 5.69 -3.66 3.38 -4 1 C-2 0 -2 0 0 0 Z " fill="#A88A5B" transform="translate(155,62)"/>
<path d="M0 0 C3.96 0 7.92 0 12 0 C12 0.66 12 1.32 12 2 C11.401875 2.226875 10.80375 2.45375 10.1875 2.6875 C7.44106051 4.33536369 6.52827786 6.23454483 5 9 C4.67 9 4.34 9 4 9 C4 6.69 4 4.38 4 2 C2.68 1.34 1.36 0.68 0 0 Z " fill="#89683B" transform="translate(124,130)"/>
<path d="M0 0 C1.32 0 2.64 0 4 0 C6 3 6 3 6 6 C4.68 6 3.36 6 2 6 C1.34 6.66 0.68 7.32 0 8 C-0.66 7.34 -1.32 6.68 -2 6 C-1.44444444 1.44444444 -1.44444444 1.44444444 0 0 Z " fill="#947247" transform="translate(128,142)"/>
<path d="M0 0 C2.31 0.33 4.62 0.66 7 1 C6 4 6 4 4 5 C4 6.65 4 8.3 4 10 C2.5 8.625 2.5 8.625 1 7 C1 6.34 1 5.68 1 5 C0.34 5 -0.32 5 -1 5 C-0.67 3.35 -0.34 1.7 0 0 Z " fill="#9B7A51" transform="translate(146,129)"/>
<path d="M0 0 C-0.6875 1.875 -0.6875 1.875 -2 4 C-2.845625 4.309375 -3.69125 4.61875 -4.5625 4.9375 C-5.366875 5.288125 -6.17125 5.63875 -7 6 C-7.89386164 8.54775306 -7.89386164 8.54775306 -8 11 C-8.66 10.67 -9.32 10.34 -10 10 C-9.38764045 4.48876404 -9.38764045 4.48876404 -7.5625 2.1875 C-4.70528223 0.0160145 -3.84056415 0 0 0 Z " fill="#916E60" transform="translate(129,66)"/>
<path d="M0 0 C-1.32 0.33 -2.64 0.66 -4 1 C-4 1.66 -4 2.32 -4 3 C-3.34 3.33 -2.68 3.66 -2 4 C-3.60064843 4.53154742 -5.20568874 5.04988353 -6.8125 5.5625 C-7.70582031 5.85253906 -8.59914063 6.14257812 -9.51953125 6.44140625 C-12 7 -12 7 -15 6 C-14.67 5.01 -14.34 4.02 -14 3 C-13.071875 2.87625 -12.14375 2.7525 -11.1875 2.625 C-6.81159381 1.76697918 -4.63097151 -0.25032278 0 0 Z " fill="#6A4723" transform="translate(108,36)"/>
<path d="M0 0 C4.29 0 8.58 0 13 0 C13 0.33 13 0.66 13 1 C11.02 1 9.04 1 7 1 C7.33 1.99 7.66 2.98 8 4 C7.67 4.99 7.34 5.98 7 7 C6.34 7 5.68 7 5 7 C4.67 6.01 4.34 5.02 4 4 C1.99983534 2.79117904 1.99983534 2.79117904 0 2 C0 1.34 0 0.68 0 0 Z " fill="#8B6E4E" transform="translate(93,130)"/>
<path d="M0 0 C6.30162703 0.59449312 6.30162703 0.59449312 8.9375 2.125 C10.58420065 5.03094231 10.18462917 7.73821805 10 11 C9.75507812 10.40574219 9.51015625 9.81148437 9.2578125 9.19921875 C7.78949919 6.63195045 6.28877462 5.49522101 3.875 3.8125 C2.56923083 2.89474409 1.27326124 1.96234861 0 1 C0 0.67 0 0.34 0 0 Z " fill="#8E6D59" transform="translate(101,66)"/>
<path d="M0 0 C4.3590077 3.48720616 4.94552183 6.72760915 6 12 C6.33 12 6.66 12 7 12 C7 13.65 7 15.3 7 17 C6.34 17.33 5.68 17.66 5 18 C3.37552276 15.11131265 2.72850262 12.85865025 2.5 9.5625 C2.18111417 6.04895799 1.55322287 3.20999394 0 0 Z " fill="#CBB072" transform="translate(83,137)"/>
<path d="M0 0 C0.66 1.32 1.32 2.64 2 4 C4.55519921 4.81171228 4.55519921 4.81171228 7 5 C7 5.99 7 6.98 7 8 C5.35 7.67 3.7 7.34 2 7 C2.33 8.98 2.66 10.96 3 13 C2.01 12.67 1.02 12.34 0 12 C0 8.04 0 4.08 0 0 Z " fill="#A3845F" transform="translate(102,171)"/>
<path d="M0 0 C1.76462683 3.08809695 2 4.23312136 2 8 C3.32 8.33 4.64 8.66 6 9 C2.37 9 -1.26 9 -5 9 C-5 8.01 -5 7.02 -5 6 C-3.68 5.67 -2.36 5.34 -1 5 C-0.67 3.35 -0.34 1.7 0 0 Z " fill="#7B5C3B" transform="translate(98,156)"/>
<path d="M0 0 C0.99 0.33 1.98 0.66 3 1 C2.62746094 1.54269531 2.25492188 2.08539063 1.87109375 2.64453125 C1.39800781 3.35996094 0.92492187 4.07539062 0.4375 4.8125 C-0.03816406 5.52019531 -0.51382813 6.22789063 -1.00390625 6.95703125 C-2.35077091 9.11436427 -2.35077091 9.11436427 -1 12 C-1.99 12 -2.98 12 -4 12 C-4 10.68 -4 9.36 -4 8 C-4.66 7.67 -5.32 7.34 -6 7 C-4.02 4.69 -2.04 2.38 0 0 Z " fill="#856651" transform="translate(123,99)"/>
<path d="M0 0 C0.66 1.32 1.32 2.64 2 4 C1.34 4.66 0.68 5.32 0 6 C-0.33 6 -0.66 6 -1 6 C-1.33 9.63 -1.66 13.26 -2 17 C-2.33 17 -2.66 17 -3 17 C-3.06058594 16.25234375 -3.12117188 15.5046875 -3.18359375 14.734375 C-3.26738281 13.74953125 -3.35117188 12.7646875 -3.4375 11.75 C-3.51871094 10.77546875 -3.59992188 9.8009375 -3.68359375 8.796875 C-3.95074584 6.43538247 -4.35371968 4.28098935 -5 2 C-4.01 2 -3.02 2 -2 2 C-1.34 1.34 -0.68 0.68 0 0 Z " fill="#6F4C16" transform="translate(131,146)"/>
<path d="M0 0 C0.66 0.33 1.32 0.66 2 1 C2.6328125 3.06640625 2.6328125 3.06640625 3.125 5.5625 C3.29257813 6.38878906 3.46015625 7.21507812 3.6328125 8.06640625 C3.75398438 8.70449219 3.87515625 9.34257812 4 10 C3.01 10.33 2.02 10.66 1 11 C-0.5 9.8125 -0.5 9.8125 -2 8 C-2.1875 5.3125 -2.1875 5.3125 -2 3 C-1.34 3 -0.68 3 0 3 C0 2.01 0 1.02 0 0 Z " fill="#866D36" transform="translate(103,132)"/>
<path d="M0 0 C7.34164374 0.59288188 14.67386859 1.238212 22 2 C22 2.33 22 2.66 22 3 C19.08277452 3.08103404 16.16780484 3.14051081 13.25 3.1875 C12.0125 3.22520508 12.0125 3.22520508 10.75 3.26367188 C4.57702246 3.33834499 4.57702246 3.33834499 1.421875 1.48828125 C0.95265625 0.99714844 0.4834375 0.50601563 0 0 Z " fill="#A48165" transform="translate(100,120)"/>
<path d="M0 0 C4 2 4 2 4.75 4.125 C4.8325 4.74375 4.915 5.3625 5 6 C4.01 6.495 4.01 6.495 3 7 C2.34 6.67 1.68 6.34 1 6 C1 8.64 1 11.28 1 14 C0.67 14 0.34 14 0 14 C0 9.38 0 4.76 0 0 Z " fill="#C1A577" transform="translate(98,86)"/>
<path d="M0 0 C0.63671875 1.83203125 0.63671875 1.83203125 1 4 C-1.62685275 7.22727623 -3.74780225 9.52753358 -8 10 C-6.34908222 5.70761377 -3.26245434 3.1206085 0 0 Z " fill="#997A5C" transform="translate(151,103)"/>
<path d="M0 0 C0.33 0 0.66 0 1 0 C1 4.29 1 8.58 1 13 C1.66 13.33 2.32 13.66 3 14 C2.34 14 1.68 14 1 14 C0.67 14.99 0.34 15.98 0 17 C-1.65 17 -3.3 17 -5 17 C-4.02727325 15.64664105 -3.0260734 14.31337396 -2 13 C-1.67 13 -1.34 13 -1 13 C-0.67 8.71 -0.34 4.42 0 0 Z " fill="#93764E" transform="translate(132,92)"/>
<path d="M0 0 C1.01299606 2.65602626 1.07672553 3.78395707 0.109375 6.5078125 C-0.33921875 7.37148437 -0.7878125 8.23515625 -1.25 9.125 C-1.68828125 9.99382812 -2.1265625 10.86265625 -2.578125 11.7578125 C-4 14 -4 14 -7 16 C-6.690625 15.278125 -6.38125 14.55625 -6.0625 13.8125 C-5.07439461 11.19692691 -4.4712246 8.74881018 -4 6 C-3.34 6 -2.68 6 -2 6 C-1.34 4.02 -0.68 2.04 0 0 Z " fill="#B19377" transform="translate(153,86)"/>
<path d="M0 0 C1.65 0.33 3.3 0.66 5 1 C5 1.99 5 2.98 5 4 C6.43750191 5.68798827 6.43750191 5.68798827 8 7 C7.67 7.99 7.34 8.98 7 10 C6.34 9.01 5.68 8.02 5 7 C4.01 7.495 4.01 7.495 3 8 C0.9375 5.6875 0.9375 5.6875 -1 3 C-0.67 2.01 -0.34 1.02 0 0 Z " fill="#7B5C35" transform="translate(79,131)"/>
<path d="M0 0 C0.33 0 0.66 0 1 0 C1 4.29 1 8.58 1 13 C3.64 12.34 6.28 11.68 9 11 C9 11.99 9 12.98 9 14 C6.03 14 3.06 14 0 14 C0 9.38 0 4.76 0 0 Z " fill="#5D3921" transform="translate(124,171)"/>
<path d="M0 0 C0.33 0 0.66 0 1 0 C1.33 1.65 1.66 3.3 2 5 C2.33 5 2.66 5 3 5 C3.36923077 12.50769231 3.36923077 12.50769231 1.5 15 C1.005 15.33 0.51 15.66 0 16 C-0.66 15.67 -1.32 15.34 -2 15 C-1.67 14.34 -1.34 13.68 -1 13 C-0.77049681 10.795636 -0.58924067 8.58607827 -0.4375 6.375 C-0.35371094 5.18648437 -0.26992188 3.99796875 -0.18359375 2.7734375 C-0.12300781 1.85820312 -0.06242187 0.94296875 0 0 Z " fill="#8B6D4E" transform="translate(61,173)"/>
<path d="M0 0 C0.33 0 0.66 0 1 0 C1 1.65 1 3.3 1 5 C2.65 5 4.3 5 6 5 C5.67 5.99 5.34 6.98 5 8 C4.01 7.67 3.02 7.34 2 7 C2 8.98 2 10.96 2 13 C1.34 12.67 0.68 12.34 0 12 C0 8.04 0 4.08 0 0 Z " fill="#AD8E6F" transform="translate(70,171)"/>
<path d="M0 0 C0.66 0.33 1.32 0.66 2 1 C3.64179104 7.71641791 3.64179104 7.71641791 2 11 C-0.5625 12.25 -0.5625 12.25 -3 13 C-2.68289062 12.43796875 -2.36578125 11.8759375 -2.0390625 11.296875 C-0.93125475 8.84803683 -0.61024601 6.91612145 -0.375 4.25 C-0.30023438 3.45078125 -0.22546875 2.6515625 -0.1484375 1.828125 C-0.09945312 1.22484375 -0.05046875 0.6215625 0 0 Z " fill="#B09367" transform="translate(139,91)"/>
<path d="M0 0 C0.33 1.32 0.66 2.64 1 4 C2.65 4.33 4.3 4.66 6 5 C5.54625 5.4125 5.0925 5.825 4.625 6.25 C2.94049626 8.06408095 2.00734029 9.75285627 1 12 C0 11 0 11 -0.09765625 8.49609375 C-0.08605469 7.48675781 -0.07445312 6.47742188 -0.0625 5.4375 C-0.05347656 4.42558594 -0.04445312 3.41367188 -0.03515625 2.37109375 C-0.02355469 1.58863281 -0.01195312 0.80617187 0 0 Z " fill="#9C7F55" transform="translate(137,172)"/>
<path d="M0 0 C2.90664203 2.62535409 4.17234674 4.21644225 5 8 C6.48800372 10.2072358 6.48800372 10.2072358 8 12 C3.6875406 10.40279281 1.57856327 7.68366181 -1 4 C-0.8125 1.625 -0.8125 1.625 0 0 Z " fill="#806045" transform="translate(77,101)"/>
<path d="M0 0 C1.32 0.33 2.64 0.66 4 1 C4 4.96 4 8.92 4 13 C0.625 8.5 0.625 8.5 0.3125 4.25 C0.24675781 3.45078125 0.18101563 2.6515625 0.11328125 1.828125 C0.07589844 1.22484375 0.03851563 0.6215625 0 0 Z " fill="#967848" transform="translate(87,141)"/>
<path d="M0 0 C0.66 1.32 1.32 2.64 2 4 C2.66 3.67 3.32 3.34 4 3 C3.34 7.29 2.68 11.58 2 16 C1.67 16 1.34 16 1 16 C0.14701624 12.32612505 -0.10789471 8.9552607 -0.0625 5.1875 C-0.05347656 4.21167969 -0.04445313 3.23585938 -0.03515625 2.23046875 C-0.02355469 1.49441406 -0.01195313 0.75835937 0 0 Z " fill="#6A4821" transform="translate(79,71)"/>
<path d="M0 0 C3.80097811 0.54299687 5.57457897 2.07276772 8 5 C8.75 7.25 8.75 7.25 9 9 C8.01 9.33 7.02 9.66 6 10 C5.938125 9.443125 5.87625 8.88625 5.8125 8.3125 C4.67006456 5.06095298 2.46794619 3.34138484 0 1 C0 0.67 0 0.34 0 0 Z " fill="#9E7D5D" transform="translate(140,39)"/>
<path d="M0 0 C0.99 0.33 1.98 0.66 3 1 C2.67 1.99 2.34 2.98 2 4 C3.37168238 6.19038423 3.37168238 6.19038423 5 8 C4.67 8.66 4.34 9.32 4 10 C0.51167694 7.79072873 -0.73058503 5.91402949 -2 2 C-1.34 1.34 -0.68 0.68 0 0 Z " fill="#A58460" transform="translate(97,46)"/>
<path d="M0 0 C0.99 0 1.98 0 3 0 C2.5206753 4.31392226 1.2542015 6.16569547 -2 9 C-1.125 1.125 -1.125 1.125 0 0 Z " fill="#997757" transform="translate(118,146)"/>
<path d="M0 0 C0.99 0.99 1.98 1.98 3 3 C2.34 4.65 1.68 6.3 1 8 C0.34 8 -0.32 8 -1 8 C-1.625 5.6875 -1.625 5.6875 -2 3 C-1.34 2.01 -0.68 1.02 0 0 Z " fill="#CBAC6E" transform="translate(65,142)"/>
<path d="M0 0 C2.31 0.66 4.62 1.32 7 2 C6.67 2.99 6.34 3.98 6 5 C5.0925 4.814375 4.185 4.62875 3.25 4.4375 C0.31685676 4.04265379 -1.2644657 4.05308428 -4 5 C-2.68 3.35 -1.36 1.7 0 0 Z " fill="#785A35" transform="translate(125,43)"/>
<path d="M0 0 C0.99 0.33 1.98 0.66 3 1 C2.67 3.31 2.34 5.62 2 8 C0.4375 6.8125 0.4375 6.8125 -1 5 C-0.6875 2.3125 -0.6875 2.3125 0 0 Z " fill="#C1A259" transform="translate(153,143)"/>
<path d="M0 0 C0.33 0 0.66 0 1 0 C1.33 1.98 1.66 3.96 2 6 C2.99 6 3.98 6 5 6 C4 8 4 8 1 10 C-0.5625 8.8125 -0.5625 8.8125 -2 7 C-1.73904456 4.32520673 -1.1995243 2.39904859 0 0 Z " fill="#634610" transform="translate(125,135)"/>
<path d="M0 0 C0.66 0.33 1.32 0.66 2 1 C2 1.99 2 2.98 2 4 C1.34 4 0.68 4 0 4 C-0.66 5.65 -1.32 7.3 -2 9 C-2.66 7.68 -3.32 6.36 -4 5 C-2.68 3.35 -1.36 1.7 0 0 Z " fill="#755B36" transform="translate(88,77)"/>
<path d="M0 0 C0.66 0 1.32 0 2 0 C3.45606519 4.52092968 2.27032841 7.51648796 1 12 C-1 10 -1 10 -1.23046875 8.125 C-1.21628906 7.42375 -1.20210937 6.7225 -1.1875 6 C-1.18105469 5.29875 -1.17460937 4.5975 -1.16796875 3.875 C-1 2 -1 2 0 0 Z " fill="#B89B69" transform="translate(148,73)"/>
<path d="M0 0 C2.46800047 1.15173355 4.04783565 2.04783565 6 4 C5.67 4.99 5.34 5.98 5 7 C3 6 3 6 1 4 C-0.32 4 -1.64 4 -3 4 C-3 3.34 -3 2.68 -3 2 C-2.01 2 -1.02 2 0 2 C0 1.34 0 0.68 0 0 Z " fill="#775732" transform="translate(87,61)"/>
<path d="M0 0 C0.99 0.33 1.98 0.66 3 1 C0.36 2.98 -2.28 4.96 -5 7 C-5.33 6.34 -5.66 5.68 -6 5 C-2.25 1.125 -2.25 1.125 0 0 Z " fill="#8A6948" transform="translate(94,41)"/>
<path d="M0 0 C0.66 0 1.32 0 2 0 C3.18681726 3.56045177 3.09689832 6.43808337 3.0625 10.1875 C3.05347656 11.45980469 3.04445312 12.73210937 3.03515625 14.04296875 C3.02355469 15.01878906 3.01195312 15.99460938 3 17 C2.67 17 2.34 17 2 17 C1.93941406 16.19175781 1.87882812 15.38351563 1.81640625 14.55078125 C1.73261719 13.48214844 1.64882813 12.41351563 1.5625 11.3125 C1.48128906 10.25675781 1.40007813 9.20101562 1.31640625 8.11328125 C1.03548319 5.34913703 0.59843148 2.71054259 0 0 Z " fill="#77582A" transform="translate(60,145)"/>
<path d="M0 0 C0.66 0 1.32 0 2 0 C1.5317879 4.77576339 0.75668002 8.04476345 -2 12 C-3.15957207 8.52128379 -2.77456651 7.65780355 -1.5625 4.3125 C-1.13130859 3.10013672 -1.13130859 3.10013672 -0.69140625 1.86328125 C-0.46324219 1.24839844 -0.23507813 0.63351563 0 0 Z " fill="#BD9C75" transform="translate(122,135)"/>
<path d="M0 0 C0.86625 0.556875 0.86625 0.556875 1.75 1.125 C-3.5234375 4.34765625 -3.5234375 4.34765625 -5.25 5.125 C-5.91 4.795 -6.57 4.465 -7.25 4.125 C-6.25 1.125 -6.25 1.125 -4.4375 -0.1875 C-2.25 -0.875 -2.25 -0.875 0 0 Z " fill="#7E6041" transform="translate(90.25,68.875)"/>
<path d="M0 0 C0.66 0 1.32 0 2 0 C1.34 1.65 0.68 3.3 0 5 C-2.31 5.33 -4.62 5.66 -7 6 C-6.67 5.01 -6.34 4.02 -6 3 C-4.02 2.67 -2.04 2.34 0 2 C0 1.34 0 0.68 0 0 Z " fill="#A1885F" transform="translate(128,53)"/>
<path d="M0 0 C0.99 0 1.98 0 3 0 C2.690625 0.969375 2.38125 1.93875 2.0625 2.9375 C0.82032903 7.23664491 0.38315147 11.55342634 0 16 C-0.33 16 -0.66 16 -1 16 C-1.09688221 10.55306686 -1.12862175 5.36095333 0 0 Z " fill="#84633A" transform="translate(157,144)"/>
<path d="M0 0 C3.08089673 2.77280706 4.68775452 5.06326356 6 9 C5.01 9 4.02 9 3 9 C0.50022457 5.66696609 0 4.26696398 0 0 Z " fill="#A48356" transform="translate(145,136)"/>
<path d="M0 0 C0.99 0.33 1.98 0.66 3 1 C1.6875 3.9375 1.6875 3.9375 0 7 C-0.99 7.33 -1.98 7.66 -3 8 C-2.67 6.02 -2.34 4.04 -2 2 C-1.34 2 -0.68 2 0 2 C0 1.34 0 0.68 0 0 Z " fill="#AC8B5C" transform="translate(164,132)"/>
<path d="M0 0 C4.55384615 -0.36923077 4.55384615 -0.36923077 6.8125 1.5 C7.204375 1.995 7.59625 2.49 8 3 C7.01 4.485 7.01 4.485 6 6 C3.21510722 4.60755361 1.87698471 2.44008012 0 0 Z " fill="#795D38" transform="translate(87,108)"/>
<path d="M0 0 C3.36720387 1.39332574 4.9859524 2.9789286 7 6 C2.25 5.25 2.25 5.25 0 3 C0 2.01 0 1.02 0 0 Z " fill="#9A7B65" transform="translate(83,102)"/>
<path d="M0 0 C2 2 2 2 2.125 4.625 C2.08375 5.40875 2.0425 6.1925 2 7 C0.02 7.99 0.02 7.99 -2 9 C-1.34 6.03 -0.68 3.06 0 0 Z " fill="#A98D5E" transform="translate(126,90)"/>
<path d="M0 0 C0.66 0 1.32 0 2 0 C2.33 1.65 2.66 3.3 3 5 C2.01 5 1.02 5 0 5 C-0.33 5.99 -0.66 6.98 -1 8 C-2.2077558 4.37673261 -1.54311128 3.35853631 0 0 Z " fill="#A6855D" transform="translate(84,58)"/>
<path d="M0 0 C-0.6875 2.4375 -0.6875 2.4375 -2 5 C-4.625 5.8125 -4.625 5.8125 -7 6 C-3.61538462 0 -3.61538462 0 0 0 Z " fill="#8A6851" transform="translate(138,56)"/>
<path d="M0 0 C4.67692308 1.47692308 4.67692308 1.47692308 6.3125 4.125 C6.539375 4.74375 6.76625 5.3625 7 6 C4.03824877 5.38722388 2.61941217 4.74627478 0 3 C0 2.01 0 1.02 0 0 Z " fill="#9F8259" transform="translate(137,43)"/>
<path d="M0 0 C1.80411967 2.75924185 2.0127245 3.88972103 1.625 7.25 C1.41875 8.1575 1.2125 9.065 1 10 C-1.59482129 7.40517871 -1.69990302 5.60116375 -2 2 C-1.34 1.34 -0.68 0.68 0 0 Z " fill="#79552E" transform="translate(71,86)"/>
<path d="M0 0 C-0.33 1.32 -0.66 2.64 -1 4 C-1.66 4 -2.32 4 -3 4 C-3 4.66 -3 5.32 -3 6 C-4.32 5.34 -5.64 4.68 -7 4 C-6.67 3.01 -6.34 2.02 -6 1 C-3.90006779 0.25486277 -2.22568901 0 0 0 Z " fill="#795938" transform="translate(151,69)"/>
<path d="M0 0 C2 3 2 3 1.75 5.0625 C1 7 1 7 -1 9 C-1.66 6.69 -2.32 4.38 -3 2 C-2.01 1.34 -1.02 0.68 0 0 Z " fill="#6F502E" transform="translate(159,62)"/>
<path d="M0 0 C0.33 0.99 0.66 1.98 1 3 C0 4 0 4 -2.06640625 4.09765625 C-2.89011719 4.08605469 -3.71382813 4.07445312 -4.5625 4.0625 C-5.38878906 4.05347656 -6.21507813 4.04445312 -7.06640625 4.03515625 C-7.70449219 4.02355469 -8.34257813 4.01195312 -9 4 C-8.360625 3.87625 -7.72125 3.7525 -7.0625 3.625 C-6.0415625 3.315625 -6.0415625 3.315625 -5 3 C-4.67 2.34 -4.34 1.68 -4 1 C-1.9375 0.375 -1.9375 0.375 0 0 Z " fill="#614133" transform="translate(121,181)"/>
<path d="M0 0 C2.375 -0.1875 2.375 -0.1875 5 0 C5.66 0.99 6.32 1.98 7 3 C6.34 3.66 5.68 4.32 5 5 C2.5 3.625 2.5 3.625 0 2 C0 1.34 0 0.68 0 0 Z " fill="#8C6B4C" transform="translate(161,175)"/>
<path d="M0 0 C0.99 0.66 1.98 1.32 3 2 C2.34 3.65 1.68 5.3 1 7 C0.34 7 -0.32 7 -1 7 C-1.625 5.1875 -1.625 5.1875 -2 3 C-1.34 2.01 -0.68 1.02 0 0 Z " fill="#8C6A45" transform="translate(87,152)"/>
<path d="M0 0 C0.99 0.33 1.98 0.66 3 1 C2.67 2.32 2.34 3.64 2 5 C0.02 5 -1.96 5 -4 5 C-4 4.34 -4 3.68 -4 3 C-2.68 2.67 -1.36 2.34 0 2 C0 1.34 0 0.68 0 0 Z " fill="#BEA371" transform="translate(144,59)"/>
<path d="M0 0 C1.8125 0.1875 1.8125 0.1875 4 1 C5.75 3.5625 5.75 3.5625 7 6 C2.32307692 4.52307692 2.32307692 4.52307692 0.6875 1.875 C0.460625 1.25625 0.23375 0.6375 0 0 Z " fill="#896658" transform="translate(91,56)"/>
<path d="M0 0 C3.3 0 6.6 0 10 0 C9.67 0.99 9.34 1.98 9 3 C4.545 2.01 4.545 2.01 0 1 C0 0.67 0 0.34 0 0 Z " fill="#B59E5D" transform="translate(108,57)"/>
<path d="M0 0 C0.66 0 1.32 0 2 0 C2 1.32 2 2.64 2 4 C1.34 4 0.68 4 0 4 C-0.33 4.99 -0.66 5.98 -1 7 C-1.66 6.01 -2.32 5.02 -3 4 C-1.625 2 -1.625 2 0 0 Z " fill="#896955" transform="translate(79,46)"/>
<path d="M0 0 C0.99 0 1.98 0 3 0 C3.33 0.99 3.66 1.98 4 3 C3.01 3.99 2.02 4.98 1 6 C0.34 5.34 -0.32 4.68 -1 4 C-0.625 1.875 -0.625 1.875 0 0 Z " fill="#D0B06A" transform="translate(127,144)"/>
<path d="M0 0 C-0.33 0.66 -0.66 1.32 -1 2 C-3.32156597 2.40729228 -5.6568787 2.74438677 -8 3 C-8 2.34 -8 1.68 -8 1 C-4.93251126 -0.86240388 -3.40254489 -1.2151946 0 0 Z " fill="#99795A" transform="translate(99,35)"/>
<path d="M0 0 C2.62187494 1.04874998 3.79371361 1.64931313 5.25 4.125 C5.4975 4.74375 5.745 5.3625 6 6 C4.125 5.8125 4.125 5.8125 2 5 C0.75 2.4375 0.75 2.4375 0 0 Z " fill="#A17F66" transform="translate(153,178)"/>
<path d="M0 0 C2.62187494 1.04874998 3.79371361 1.64931313 5.25 4.125 C5.4975 4.74375 5.745 5.3625 6 6 C3 5 3 5 0 3 C0 2.01 0 1.02 0 0 Z " fill="#BD9F7C" transform="translate(108,103)"/>
<path d="M0 0 C1.5625 1.75 1.5625 1.75 3 4 C2.6875 6.25 2.6875 6.25 2 8 C0.4375 6.25 0.4375 6.25 -1 4 C-0.6875 1.75 -0.6875 1.75 0 0 Z " fill="#A78872" transform="translate(150,56)"/>
<path d="M0 0 C-2.66666667 0.66666667 -5.33333333 1.33333333 -8 2 C-8.33 1.01 -8.66 0.02 -9 -1 C-5.79937313 -2.60031344 -3.27728194 -1.03173691 0 0 Z " fill="#725424" transform="translate(107,46)"/>
<path d="" fill="#5D3924" transform="translate(0,0)"/>
<path d="" fill="#461717" transform="translate(0,0)"/>
<path d="" fill="#6D2424" transform="translate(0,0)"/>
<path d="" fill="#43280D" transform="translate(0,0)"/>
<path d="" fill="#604000" transform="translate(0,0)"/>
<path d="" fill="#3D290A" transform="translate(0,0)"/>
<path d="" fill="#55390E" transform="translate(0,0)"/>
<path d="" fill="#663333" transform="translate(0,0)"/>
<path d="" fill="#808080" transform="translate(0,0)"/>
<path d="" fill="#FFFFFF" transform="translate(0,0)"/>
<path d="" fill="#46231A" transform="translate(0,0)"/>
<path d="" fill="#FFFFFF" transform="translate(0,0)"/>
<path d="" fill="#442211" transform="translate(0,0)"/>
<path d="" fill="#663333" transform="translate(0,0)"/>
<path d="" fill="#5D1717" transform="translate(0,0)"/>
<path d="" fill="#553322" transform="translate(0,0)"/>
<path d="" fill="#555500" transform="translate(0,0)"/>
<path d="" fill="#555555" transform="translate(0,0)"/>
<path d="" fill="#5B2412" transform="translate(0,0)"/>
<path d="" fill="#6D2400" transform="translate(0,0)"/>
<path d="" fill="#5B2412" transform="translate(0,0)"/>
<path d="" fill="#461717" transform="translate(0,0)"/>
</svg>
